<?xml version="1.0" encoding="UTF-8" standalone="no"?>
<!-- Created with Inkscape (http://www.inkscape.org/) -->

<svg
   width="1015"
   height="1150"
   viewBox="0 0 268.55208 304.27083"
   version="1.1"
   id="svg5"
   inkscape:version="1.2.2 (b0a8486541, 2022-12-01)"
   sodipodi:docname="lsao logo name.svg"
   xmlns:inkscape="http://www.inkscape.org/namespaces/inkscape"
   xmlns:sodipodi="http://sodipodi.sourceforge.net/DTD/sodipodi-0.dtd"
   xmlns="http://www.w3.org/2000/svg"
   xmlns:svg="http://www.w3.org/2000/svg">
  <sodipodi:namedview
     id="namedview7"
     pagecolor="#7d7d7d"
     bordercolor="#000000"
     borderopacity="0.24705882"
     inkscape:showpageshadow="2"
     inkscape:pageopacity="0"
     inkscape:pagecheckerboard="true"
     inkscape:deskcolor="#9c9c9c"
     inkscape:document-units="mm"
     showgrid="true"
     inkscape:zoom="1"
     inkscape:cx="450.5"
     inkscape:cy="756"
     inkscape:window-width="2516"
     inkscape:window-height="1408"
     inkscape:window-x="44"
     inkscape:window-y="0"
     inkscape:window-maximized="1"
     inkscape:current-layer="g1702"
     showguides="false">
    <inkscape:grid
       type="axonomgrid"
       id="grid248"
       originx="0"
       originy="0"
       empcolor="#78d2ff"
       empopacity="0.71372549"
       color="#74d1ff"
       opacity="0.3372549"
       empspacing="4"
       spacingy="1.25" />
  </sodipodi:namedview>
  <defs
     id="defs2">
    <rect
       x="98.195006"
       y="982.67717"
       width="818.29172"
       height="132.28346"
       id="rect1205" />
    <inkscape:path-effect
       effect="powerclip"
       id="path-effect742"
       is_visible="true"
       lpeversion="1"
       inverse="true"
       flatten="false"
       hide_clip="false"
       message="Use fill-rule evenodd on &lt;b&gt;fill and stroke&lt;/b&gt; dialog if no flatten result after convert clip to paths." />
    <clipPath
       clipPathUnits="userSpaceOnUse"
       id="clipPath738">
      <path
         style="display:block;fill:#ffffff;stroke-width:1.3;stroke-linecap:round;stroke-linejoin:bevel"
         d="m 147.22432,155 v 20 l 38.97114,22.5 v -20 z"
         id="path740"
         sodipodi:nodetypes="ccccc" />
    </clipPath>
    <rect
       x="98.195007"
       y="982.67719"
       width="818.29175"
       height="132.28346"
       id="rect1205-3" />
  </defs>
  <g
     inkscape:label="Layer 1"
     inkscape:groupmode="layer"
     id="layer1">
    <path
       style="fill:#ffffff;stroke-width:1.3;stroke-linecap:round;stroke-linejoin:bevel"
       d="m 25.980762,75 0,160 21.650635,12.5 60.621783,-35 -0.14941,-25.0863 L 51.961524,220 l -4.330127,-2.5 0,-155 z"
       id="path565"
       sodipodi:nodetypes="ccccccccc" />
    <path
       style="fill:#ffffff;stroke-width:1.3;stroke-linecap:round;stroke-linejoin:bevel"
       d="m 86.602536,225.00002 47.631444,-27.5 -3e-5,-80 -21.65064,-12.5 -21.650633,12.5 -4.330127,-2.5 -1.6e-5,-50.000005 47.631406,-27.5 -21.65064,-12.5 -47.631401,27.5 1.6e-5,80.000005 21.650635,12.5 21.65064,-12.5 4.33012,2.5 3e-5,50 -47.631439,27.5 z"
       id="path567"
       sodipodi:nodetypes="ccccccccccccccccc" />
    <path
       style="fill:#ffffff;stroke-width:1.3;stroke-linecap:round;stroke-linejoin:bevel"
       d="M 199.03645,234.91372 220.83648,247.5 242.48711,235 l -4e-5,-159.999985 -86.60249,-49.999999 -21.65063,12.5 3e-5,54.999999 21.65063,12.499995 -3e-5,-49.999994 4.33013,-2.5 60.62173,34.999999 5e-5,130.000005 -4.33013,2.5 -17.46992,-10.0863 z"
       id="path627"
       sodipodi:nodetypes="ccccccccccccccc" />
    <path
       style="fill:#ffffff;stroke-width:1.3;stroke-linecap:round;stroke-linejoin:bevel"
       d="m 134.23398,117.50002 21.65063,-12.50001 47.6314,27.50001 v 105 l -69.28205,-40 -4e-5,-40 21.65066,-12.5 25.98076,15 v 25 l -21.65063,-12.5 -4.33013,2.5 v 10 l 21.65064,12.5 4.33012,-2.5 3e-5,-50 z"
       id="path963"
       sodipodi:nodetypes="cccccccccccccccc" />
    <rect
       style="fill:#ffffff;stroke-width:1.3;stroke-linecap:round;stroke-linejoin:bevel"
       id="rect1159"
       width="17.320509"
       height="40"
       x="125.57368"
       y="157.5" />
  </g>
  <g
     inkscape:groupmode="layer"
     id="layer2"
     inkscape:label="Layer 2"
     style="display:none">
    <text
       xml:space="preserve"
       style="font-weight:600;font-size:29.541px;font-family:'Chakra Petch';-inkscape-font-specification:'Chakra Petch Semi-Bold';text-align:center;letter-spacing:5.90822px;text-anchor:middle;fill:#ffffff;stroke-width:1.3;stroke-linecap:round;stroke-linejoin:bevel"
       x="134.97244"
       y="275.67874"
       id="text1668"><tspan
         sodipodi:role="line"
         id="tspan1666"
         style="font-style:normal;font-variant:normal;font-weight:bold;font-stretch:normal;font-family:'Chakra Petch';-inkscape-font-specification:'Chakra Petch Bold';stroke-width:1.3"
         x="137.92654"
         y="275.67874">VISUALIZER</tspan></text>
  </g>
  <g
     inkscape:groupmode="layer"
     id="g1702"
     inkscape:label="Layer 2 copy"
     style="display:inline">
    <g
       aria-label="VISUALIZER"
       id="text1700"
       style="font-weight:600;font-size:29.541px;font-family:'Chakra Petch';-inkscape-font-specification:'Chakra Petch Semi-Bold';text-align:center;letter-spacing:5.90822px;text-anchor:middle;fill:#ffffff;stroke-width:1.3;stroke-linecap:round;stroke-linejoin:bevel"
       transform="translate(-8.4886465e-5,9.99996)">
      <path
         d="m 25.980847,255.00004 h 4.13574 l 5.140134,15.89306 h 0.05908 l 5.140135,-15.89306 h 4.13574 l -7.355709,20.6787 h -3.899413 z"
         style="font-weight:bold;-inkscape-font-specification:'Chakra Petch Bold'"
         id="path1704" />
      <path
         d="m 52.863167,255.00004 h 4.017576 v 20.6787 h -4.017576 z"
         style="font-weight:bold;-inkscape-font-specification:'Chakra Petch Bold'"
         id="path1706" />
      <path
         d="m 66.333855,272.48831 v -2.9541 h 3.958494 v 1.74292 l 0.974853,0.97486 h 6.114987 l 1.004394,-1.0044 v -3.42675 l -0.974853,-0.97486 h -7.828365 l -3.190428,-3.19043 v -5.46508 l 3.190428,-3.19043 h 9.334956 l 3.190428,3.19043 v 2.98364 h -3.958494 v -1.77246 l -0.974853,-0.97485 h -5.849118 l -0.974853,0.97485 v 3.04272 l 0.974853,0.97486 h 7.828365 l 3.190428,3.19042 v 5.81958 l -3.24951,3.24951 h -9.571284 z"
         style="font-weight:bold;-inkscape-font-specification:'Chakra Petch Bold'"
         id="path1708" />
      <path
         d="m 91.502781,272.13382 v -17.13378 h 4.017576 v 15.74535 l 1.506591,1.5066 h 5.790032 l 1.5066,-1.5066 v -15.74535 h 4.01757 v 17.13378 l -3.54492,3.54492 h -9.748529 z"
         style="font-weight:bold;-inkscape-font-specification:'Chakra Petch Bold'"
         id="path1710" />
      <path
         d="m 123.28893,255.00004 h 3.66308 l 7.5625,20.6787 h -4.07666 l -1.68384,-4.57885 h -7.26708 l -1.68384,4.57885 h -4.07666 z m 4.57885,12.79125 -2.74731,-7.8579 h -0.0591 l -2.65869,7.8579 z"
         style="font-weight:bold;-inkscape-font-specification:'Chakra Petch Bold'"
         id="path1712" />
      <path
         d="m 142.49059,255.00004 h 4.01758 v 17.28149 h 10.33935 v 3.39721 h -14.35693 z"
         style="font-weight:bold;-inkscape-font-specification:'Chakra Petch Bold'"
         id="path1714" />
      <path
         d="m 165.11905,255.00004 h 4.01757 v 20.6787 h -4.01757 z"
         style="font-weight:bold;-inkscape-font-specification:'Chakra Petch Bold'"
         id="path1716" />
      <path
         d="m 178.14662,272.48831 10.60522,-14.06151 v -0.0591 h -10.30981 v -3.36768 h 15.12499 v 3.19043 l -10.60522,14.06152 v 0.0591 h 10.60522 v 3.36767 h -15.4204 z"
         style="font-weight:bold;-inkscape-font-specification:'Chakra Petch Bold'"
         id="path1718" />
      <path
         d="m 202.42936,255.00004 h 14.94775 v 3.39722 h -10.93017 v 5.22875 h 10.07348 v 3.33814 h -10.07348 v 5.31738 h 10.93017 v 3.39721 h -14.94775 z"
         style="font-weight:bold;-inkscape-font-specification:'Chakra Petch Bold'"
         id="path1720" />
      <path
         d="m 242.487,268.82523 v 6.85351 h -4.01757 V 269.741 l -1.77246,-1.97925 h -6.43994 v 7.91699 h -4.01758 v -20.6787 h 12.9685 l 3.16089,3.19043 v 6.26269 l -2.00879,2.03833 z m -12.22997,-4.37207 h 7.11938 l 1.03393,-1.03393 v -4.01758 l -1.03393,-1.03393 h -7.11938 z"
         style="font-weight:bold;-inkscape-font-specification:'Chakra Petch Bold'"
         id="path1722" />
    </g>
  </g>
</svg>
