<?xml version="1.0" encoding="UTF-8" standalone="no"?>
<!-- Created with Inkscape (http://www.inkscape.org/) -->

<svg
   width="949.33215mm"
   height="228.323mm"
   viewBox="0 0 949.33215 228.323"
   version="1.1"
   id="svg273"
   xml:space="preserve"
   inkscape:version="1.2.2 (b0a8486541, 2022-12-01)"
   sodipodi:docname="gttod.svg"
   xmlns:inkscape="http://www.inkscape.org/namespaces/inkscape"
   xmlns:sodipodi="http://sodipodi.sourceforge.net/DTD/sodipodi-0.dtd"
   xmlns="http://www.w3.org/2000/svg"
   xmlns:svg="http://www.w3.org/2000/svg"><sodipodi:namedview
     id="namedview275"
     pagecolor="#ffffff"
     bordercolor="#000000"
     borderopacity="0.25"
     inkscape:showpageshadow="2"
     inkscape:pageopacity="0.0"
     inkscape:pagecheckerboard="true"
     inkscape:deskcolor="#d1d1d1"
     inkscape:document-units="mm"
     showgrid="false"
     inkscape:zoom="0.457453"
     inkscape:cx="1587.0483"
     inkscape:cy="240.46186"
     inkscape:window-width="2515"
     inkscape:window-height="1408"
     inkscape:window-x="45"
     inkscape:window-y="0"
     inkscape:window-maximized="1"
     inkscape:current-layer="layer1" /><defs
     id="defs270" /><g
     inkscape:label="Layer 1"
     inkscape:groupmode="layer"
     id="layer1"
     transform="translate(381.2481,-41.702273)"
     style="display:inline"><path
       style="fill:#ffffff;stroke-width:0.530944"
       d="m 56.535094,234.62377 -3.65126,-3.9377 h -3.897849 -3.897884 l -1.74237,-2.36855 -1.742403,-2.36853 -9.308105,-0.0208 -9.308138,-0.0208 -3.152415,-3.18565 -3.152416,-3.18567 H 11.064981 5.4477064 l -4.0804813,-6.32745 c -4.1877864,-6.49389 -4.8702595,-7.78704 -5.381367,-10.1967 -0.3826783,-1.80402 -1.6883388,-2.05878 -10.5518691,-2.05878 h -6.924343 l 2.079502,-1.83619 2.0795,-1.83621 6.433501,-0.022 6.4335017,-0.0221 0.2711477,-15.79556 0.2711142,-15.79556 -3.3862617,-3.46446 -3.3862259,-3.46447 v -21.82171 c 0,-12.00194 -0.149314,-22.56835 -0.331842,-23.48092 l -0.331843,-1.65919 -14.401836,0.007 -14.401836,0.007 -6.86832,4.7715 -6.86832,4.7715 h -67.200468 -67.20046 l -16.19156,11.67101 c -8.90536,6.41907 -16.32899,11.6754 -16.49695,11.68075 -0.16797,0.005 -3.72509,-3.21574 -7.90471,-7.158 l -7.59931,-7.16773 -39.88019,-0.002 -39.88019,-0.002 -2.2831,-1.51475 -2.2831,-1.51474 2.48993,-0.34128 c 1.36947,-0.18771 20.50539,-0.34129 42.52427,-0.34129 h 40.03432 l 1.50794,-3.36093 c 1.69351,-3.77453 0.52729,-2.82236 25.39301,-20.73227 6.78944,-4.890192 12.34443,-9.11534 12.34443,-9.389215 0,-0.295138 -4.83811,-0.497953 -11.87854,-0.497953 h -11.87856 l -3.32101,-2.654717 -3.321,-2.654717 h -11.26532 c -10.33622,0 -11.33953,-0.08201 -12.16524,-0.994411 -0.85298,-0.94253 -0.8365,-1.011402 0.31591,-1.320107 0.66872,-0.179136 7.44292,-0.32896 15.05378,-0.332949 l 13.83792,-0.0072 1.55943,1.661719 1.55943,1.661718 37.8556,-0.348975 37.8556,-0.348979 12.84948,8.960015 12.84948,8.960011 10.27198,0.32126 10.271974,0.32125 -0.348982,-1.43524 c -0.395395,-1.62612 -0.948047,-2.12057 -7.075872,-6.330604 l -4.40202,-3.024346 0.15447,-3.473349 0.15448,-3.473348 102.9300372,-0.134084 102.9299958,-0.134083 2.537647,1.862788 c 4.2275,3.103263 5.57173,3.44934 13.39817,3.44934 h 7.06342 l 3.64141,-2.654717 3.64139,-2.654717 h 64.08787 64.08787 l 0.35242,41.81178 c 0.19389,22.99649 0.35266,52.62312 0.35287,65.83697 v 24.02518 h -5.53072 -5.53068 l -3.07047,-4.38028 c -1.68871,-2.40915 -6.60658,-9.48304 -10.9285,-15.71975 l -7.85772,-11.33922 v -26.93558 c 0,-14.81456 -0.1575,-31.99152 -0.34992,-38.171 l -0.34988,-11.23541 h -37.28517 -37.28514 l -0.32013,1.19462 c -0.17611,0.65704 -0.32342,14.11835 -0.32741,29.91403 l -0.008,28.71939 10.703,0.34539 c 5.88664,0.18997 10.81835,0.46074 10.95935,0.60173 0.141,0.14099 -0.62965,1.33757 -1.71252,2.65907 l -1.96887,2.40273 -9.1232,0.0114 -9.12325,0.0114 -1.4945,2.11243 -1.49455,2.11244 h -10.90116 -10.90116 l -2.47073,-2.17466 -2.4707,-2.17465 -0.26548,-32.73486 -0.26547,-32.73487 -20.043091,-0.13912 -20.04312,-0.13912 v 49.83495 c 0,27.40922 -0.15454,51.66292 -0.343387,53.89712 l -0.343375,4.06218 h -6.717874 -6.717912 l -4.61948,-7.16812 -4.61948,-7.16812 V 185.40742 165.61483 L 51.16,162.19438 47.708855,158.77393 V 135.26435 111.75477 H 33.639218 19.569224 v 52.7035 52.70347 l 3.227913,3.57651 3.227914,3.5765 h 5.163048 5.163012 l 1.80114,-1.85831 c 1.78297,-1.83958 1.847029,-1.8583 6.359033,-1.8583 h 4.557892 l 7.854986,8.22962 7.854985,8.22963 h 9.681098 c 7.690285,0 9.893024,0.16029 10.711729,0.77952 0.914944,0.69202 -0.429636,0.77644 -11.977477,0.75204 l -13.008108,-0.0275 -3.65126,-3.93771 z"
       id="path485" /><path
       style="fill:#ffffff;stroke-width:0.530944"
       d="m -86.328327,208.51936 c -10.202423,-0.11201 -13.886773,-0.32115 -14.194603,-0.80577 -0.22865,-0.35998 -0.41939,-7.40412 -0.42387,-15.65364 l -0.008,-14.99916 h 5.758815 c 3.167343,0 7.945833,-0.15523 10.618862,-0.34498 l 4.860058,-0.34497 v -7.08823 -7.08823 h -24.954335 -24.95433 l 0.0148,-4.11481 0.0148,-4.11481 12.26775,-9.42424 12.26776,-9.42424 h 24.57247 24.572482 l 4.019273,4.38028 4.019271,4.38028 0.0082,28.15172 0.0082,28.15171 -4.391371,4.36856 -4.39137,4.36856 -7.953051,-0.12337 c -4.374196,-0.0679 -14.15356,-0.19144 -21.731935,-0.27466 z"
       id="path487" /><path
       style="fill:#ffffff;stroke-width:0.530944"
       d="m -32.463233,239.97757 -5.023008,-5.04396 h -26.254041 -26.254065 l -4.091958,-3.98208 -4.091964,-3.98207 h -3.466261 -3.46626 l -8.44458,-8.76057 -8.44459,-8.76056 h -50.47417 -50.47418 l -1.9187,2.12377 -1.9187,2.12377 -15.266,-0.0188 c -13.50454,-0.0166 -15.11284,-0.10639 -13.93864,-0.77762 1.03356,-0.59083 3.91277,-0.76756 13.00811,-0.79843 l 11.68075,-0.0397 2.80394,-3.61744 2.80396,-3.61743 4.84355,-0.34381 c 2.66396,-0.18907 7.49267,-0.34379 10.73048,-0.34379 h 5.88692 l -11.2827,-11.29186 -11.28271,-11.29186 -0.34202,-6.74855 -0.34203,-6.74854 -9.5213,-0.1444 -9.52129,-0.1444 1.77122,-1.30997 c 1.62234,-1.19985 2.43411,-1.343 9.65726,-1.70314 l 7.88606,-0.39317 2.73282,-2.11136 c 1.50304,-1.16123 10.13947,-7.97365 19.19206,-15.13869 l 16.45924,-13.02734 14.86641,0.0492 c 8.17652,0.027 18.17372,0.19921 22.21601,0.3826 l 7.34959,0.33342 -9.47337,8.78408 c -5.21035,4.83124 -13.9532,12.90959 -19.42855,17.95188 -5.47535,5.0423 -9.95518,9.42363 -9.95518,9.73627 0,0.31266 0.47384,1.33518 1.053,2.27227 l 1.05301,1.7038 10.44765,0.34991 c 5.74621,0.19244 20.44406,0.3499 32.66189,0.3499 h 22.21423 v 17.01258 17.01257 l 6.23859,6.06274 6.23858,6.06272 33.449422,0.0275 33.449408,0.0275 8.675024,10.05633 8.674991,10.05635 18.93403598,0.15755 c 18.37580102,0.15287 18.99668802,0.19205 21.05784702,1.32867 l 2.123776,1.17116 -25.230314,0.0235 -25.23028,0.0235 z"
       id="path489" /><path
       style="fill:#ffffff;stroke-width:0.530944"
       d="m -282.75356,123.30279 c 1.5017,-2.63967 0.39758,-2.52198 23.65983,-2.52198 11.92752,0 21.68639,0.10391 21.68639,0.23091 0,0.127 -0.23301,0.84377 -0.5178,1.59283 l -0.5178,1.36192 h -22.3441 c -17.72267,0 -22.266,-0.13727 -21.96652,-0.66368 z"
       id="path491" /><path
       style="fill:#ffffff;stroke-width:0.530944"
       d="m -280.66314,173.94262 -1.57676,-0.33782 1.51563,-1.19219 1.51562,-1.19219 h 24.61726 24.61725 v 1.59283 1.59283 l -24.55612,-0.0628 c -13.50587,-0.0346 -25.26566,-0.21484 -26.13288,-0.40064 z"
       id="path493" /><path
       style="fill:#ffffff;stroke-width:0.530944"
       d="m -9.0522294,236.31369 c -1.0435116,-1.1108 -1.7686806,-1.29849 -5.6411456,-1.4601 -2.609948,-0.10893 -4.717442,-0.45933 -5.107128,-0.84913 -0.530721,-0.53094 1.387856,-0.66368 9.59227,-0.66368 H 0.04748167 l 2.59311643,1.90352 c 1.4262247,1.04693 2.5931163,2.00264 2.5931163,2.12378 0,0.12113 -2.9449149,0.22024 -6.5442408,0.22024 -6.221844,0 -6.6032174,-0.0628 -7.741703,-1.27463 z"
       id="path495" /><path
       style="fill:#ffffff;stroke-width:0.530944"
       d="m 119.20955,221.83701 c -0.19469,-0.19469 -0.35396,-5.75784 -0.35396,-12.36257 v -12.0086 l 2.80701,-2.77217 2.80703,-2.77215 47.97939,0.13558 47.97938,0.13558 7.92455,11.41528 c 4.35853,6.2784 8.13482,11.7992 8.39178,12.26846 0.33689,0.61516 -0.0661,1.61494 -1.44437,3.58386 l -1.91159,2.73069 h -56.91265 c -31.30195,0 -57.07191,-0.15929 -57.26657,-0.35396 z"
       id="path497" /><path
       style="fill:#ffffff;stroke-width:0.530944"
       d="m 175.88337,249.6042 -2.57502,-3.38147 -4.26311,-0.33194 c -2.34467,-0.18258 -7.64127,-0.33339 -11.77021,-0.33514 -6.68315,-0.003 -7.64467,-0.11779 -8.76056,-1.04739 -1.25201,-1.04305 -1.23528,-1.04425 14.73914,-1.0619 l 15.99262,-0.0176 1.26304,1.85468 1.26307,1.85467 12.74266,-0.005 12.74262,-0.005 5.57475,-5.03504 c 5.32961,-4.81357 5.68165,-5.03501 8.00423,-5.03501 2.22291,0 2.77187,-0.29335 6.458,-3.45113 l 4.02854,-3.45113 h 26.10047 26.10043 l 4.47501,-3.81044 c 2.46122,-2.09573 4.47498,-4.00212 4.47498,-4.23642 0,-0.23431 -1.55304,-2.36531 -3.45114,-4.73558 -1.89815,-2.37026 -3.45116,-4.4998 -3.45116,-4.73231 0,-0.23251 5.08155,-6.00352 11.2923,-12.82447 l 11.29225,-12.40171 40.19282,-0.26548 40.19282,-0.26546 5.59131,-4.09861 5.5913,-4.09862 v -13.85474 -13.85475 l -8.84411,-12.31041 c -4.86426,-6.77072 -9.9169,-13.68422 -11.22812,-15.36333 l -2.38401,-3.05375 h -36.51333 c -20.08235,0 -36.89126,0.14503 -37.35318,0.32228 -0.74997,0.28779 -0.83983,3.09989 -0.83983,26.28169 v 25.95941 l 7.83138,-6.9e-4 7.83143,-6.9e-4 3.89672,-3.18501 3.89675,-3.18501 h 5.07885 c 5.04524,0 5.07251,0.006 4.11786,1.06189 -0.52856,0.58404 -1.62518,1.06189 -2.43697,1.06189 -2.47997,0 -4.09044,0.90702 -8.48288,4.77757 l -4.21877,3.71728 h -8.93353 -8.9335 l -10.04433,10.87936 -10.04434,10.87935 -4.64575,0.004 -4.64575,0.005 V 143.08043 87.331384 h 69.72646 69.72651 l 1.247,-1.327356 1.24695,-1.327358 h 12.9806 c 11.47808,0 12.90406,0.09219 12.31959,0.796414 -0.54526,0.656989 -2.43886,0.796768 -10.8166,0.798438 l -10.15566,0.0021 -2.27089,2.940347 c -1.24898,1.617188 -2.56306,3.034269 -2.92018,3.149063 -0.35713,0.114793 -5.12657,0.369539 -10.59879,0.5661 -7.89208,0.283482 -9.8683,0.498821 -9.55696,1.041368 0.21588,0.376194 7.97785,9.86943 17.24885,21.09609 l 16.85639,20.41209 10.75268,0.34839 c 5.91398,0.19161 14.3546,0.34901 18.757,0.34978 7.68912,0.001 8.04999,0.05 9.16364,1.2354 0.63761,0.67871 0.99782,1.39548 0.80045,1.59284 -0.19733,0.19734 -8.32538,0.35881 -18.06233,0.35881 h -17.7035 l 0.13816,24.02518 0.13811,24.02518 8.95899,0.14588 c 7.98646,0.13004 9.10373,0.25971 10.29225,1.19462 1.1769,0.92574 1.21591,1.05634 0.33253,1.11343 -0.5504,0.0356 -5.18193,0.21477 -10.29226,0.39821 l -9.29151,0.33352 v 1.8583 1.85831 l 16.45925,0.32786 c 9.05258,0.18031 16.72566,0.35951 17.05132,0.3982 0.32566,0.0387 1.27577,0.60793 2.11144,1.26497 l 1.51938,1.19463 -18.57069,0.26547 -18.5707,0.26547 -0.26545,5.07872 -0.26548,5.07871 -4.38028,3.86303 c -2.40917,2.12466 -4.38027,4.08015 -4.38027,4.34552 0,0.27196 4.27843,0.48251 9.80464,0.48251 h 9.80466 l 2.71199,3.58386 2.71203,3.58387 10.13762,0.26547 c 7.44415,0.19493 10.19627,0.44181 10.35815,0.92915 0.17205,0.51788 -2.41633,0.66368 -11.78183,0.66368 h -12.00233 l -2.30401,-2.12378 -2.30404,-2.12376 h -48.01596 -48.01598 l -2.07379,2.12376 -2.07383,2.12378 h -18.71315 -18.71317 l -3.08049,2.58778 c -1.69428,1.42329 -5.58918,4.76681 -8.65537,7.43003 l -5.57493,4.84225 -31.59113,0.0168 -31.5911,0.0168 -6.84122,6.09227 -6.84119,6.09222 h -14.72616 -14.72614 z"
       id="path503" /><path
       style="fill:#ffffff;stroke-width:0.530944"
       d="m 339.0242,169.25984 c -0.92037,-0.24357 -0.92291,-0.30764 -0.0504,-1.27173 0.84315,-0.93171 1.74729,-1.01524 10.98916,-1.01524 h 10.07037 l -0.79256,1.19462 c -0.7678,1.15727 -1.08113,1.19703 -10.01995,1.27174 -5.07504,0.0424 -9.6635,-0.0383 -10.1966,-0.17939 z"
       id="path505" /><path
       style="fill:#ffffff;stroke-width:0.530944"
       d="m 457.99557,145.86805 c -11.60775,-0.0798 -21.10502,-0.33963 -21.10502,-0.57739 0,-0.23777 0.55299,-0.9518 1.22886,-1.58674 l 1.22886,-1.15444 h 35.14075 c 19.32744,0 35.14077,0.14231 35.14077,0.31625 0,0.17393 -0.49411,1.01017 -1.09803,1.8583 l -1.09806,1.54205 -14.16658,-0.12646 c -7.79161,-0.0696 -23.66381,-0.19176 -35.27155,-0.27157 z"
       id="path507" /></g></svg>
