<?xml version="1.0" encoding="UTF-8" standalone="no"?>
<!-- Created with Inkscape (http://www.inkscape.org/) -->

<svg
   width="949.33215mm"
   height="228.323mm"
   viewBox="0 0 949.33215 228.323"
   version="1.1"
   id="svg273"
   xml:space="preserve"
   inkscape:version="1.2.2 (b0a8486541, 2022-12-01)"
   sodipodi:docname="gttod.svg"
   xmlns:inkscape="http://www.inkscape.org/namespaces/inkscape"
   xmlns:sodipodi="http://sodipodi.sourceforge.net/DTD/sodipodi-0.dtd"
   xmlns="http://www.w3.org/2000/svg"
   xmlns:svg="http://www.w3.org/2000/svg"><sodipodi:namedview
     id="namedview275"
     pagecolor="#ffffff"
     bordercolor="#000000"
     borderopacity="0.25"
     inkscape:showpageshadow="2"
     inkscape:pageopacity="0.0"
     inkscape:pagecheckerboard="true"
     inkscape:deskcolor="#d1d1d1"
     inkscape:document-units="mm"
     showgrid="false"
     inkscape:zoom="0.457453"
     inkscape:cx="1525.8398"
     inkscape:cy="240.46186"
     inkscape:window-width="2515"
     inkscape:window-height="1408"
     inkscape:window-x="45"
     inkscape:window-y="0"
     inkscape:window-maximized="1"
     inkscape:current-layer="layer1" /><defs
     id="defs270" /><g
     inkscape:label="Layer 1"
     inkscape:groupmode="layer"
     id="layer1"
     transform="translate(381.2481,-41.702273)"
     style="display:inline"><path
       style="fill:#ffffff;stroke-width:0.510059"
       d="m 44.949928,232.03575 -3.507634,-3.78281 h -3.744523 -3.744557 l -1.673831,-2.27538 -1.673864,-2.27536 -8.94196,-0.0199 -8.941992,-0.02 -3.0284112,-3.06033 -3.028413,-3.06036 h -5.396311 -5.3963125 l -3.9199711,-6.07856 c -4.0230552,-6.23844 -4.6786822,-7.48072 -5.1696852,-9.7956 -0.367625,-1.73305 -1.621926,-1.97779 -10.136799,-1.97779 h -6.651966 l 1.997702,-1.76396 1.997701,-1.76399 6.180432,-0.0211 6.180432,-0.0212 0.260482,-15.17423 0.26045,-15.17422 -3.25306,-3.32818 -3.253024,-3.32819 v -20.96333 c 0,-11.52983 -0.143441,-21.6806 -0.318789,-22.55727 l -0.31879,-1.59393 -13.835323,0.007 -13.835324,0.007 -6.598146,4.58381 -6.598147,4.5838 h -64.557074 -64.55705 l -15.55464,11.21192 c -8.55506,6.16657 -15.68668,11.21614 -15.84803,11.22127 -0.16136,0.005 -3.57856,-3.08924 -7.59377,-6.87642 l -7.30038,-6.88579 -38.31146,-0.002 -38.31145,-0.002 -2.1933,-1.45516 -2.19329,-1.45515 2.39198,-0.32787 c 1.3156,-0.18032 19.69879,-0.32786 40.85154,-0.32786 h 38.45952 l 1.44862,-3.22872 c 1.6269,-3.62605 0.50655,-2.71134 24.39415,-19.91674 6.52237,-4.69784 11.85885,-8.756782 11.85885,-9.019884 0,-0.283529 -4.6478,-0.478366 -11.41129,-0.478366 h -11.4113 l -3.19037,-2.550291 -3.19037,-2.55029 H -238.181 c -9.92963,0 -10.89348,-0.07878 -11.68671,-0.955295 -0.81943,-0.905455 -0.8036,-0.971617 0.30348,-1.268179 0.64242,-0.17209 7.15015,-0.31602 14.46163,-0.319852 l 13.29358,-0.0069 1.4981,1.596354 1.49808,1.596352 36.36651,-0.335247 36.3665,-0.335252 12.34404,8.607563 12.34403,8.607557 9.86792,0.30862 9.86792,0.30861 -0.33526,-1.37878 c -0.37984,-1.56215 -0.91075,-2.03716 -6.79753,-6.08158 l -4.22886,-2.905378 0.14839,-3.336721 0.1484,-3.336719 98.881174,-0.129038 98.88113,-0.128808 2.437821,1.789512 c 4.06121,2.981193 5.35257,3.313657 12.871145,3.313657 h 6.78556 l 3.49818,-2.550291 3.49815,-2.550291 h 61.5669 61.5669 l 0.33856,40.167057 c 0.18626,22.0919 0.33879,50.55314 0.33899,63.2472 v 23.08013 h -5.31317 -5.31312 l -2.94969,-4.20798 c -1.62228,-2.31438 -6.3467,-9.11001 -10.49861,-15.1014 l -7.54863,-10.89317 V 161.4637 c 0,-14.2318 -0.15131,-30.73309 -0.33616,-36.66949 l -0.33612,-10.79345 h -35.81851 -35.81848 l -0.30755,1.14763 c -0.16918,0.63119 -0.3107,13.56298 -0.31453,28.73732 l -0.008,27.58968 10.28198,0.33181 c 5.65508,0.18249 10.39279,0.44261 10.52825,0.57806 0.13545,0.13544 -0.60489,1.28495 -1.64516,2.55447 l -1.89142,2.30821 -8.76433,0.011 -8.76437,0.0109 -1.43571,2.02934 -1.43576,2.02935 h -10.47236 -10.47234 l -2.37355,-2.08912 -2.37352,-2.08911 -0.25503,-31.44719 -0.25503,-31.44721 -19.254665,-0.13365 -19.254702,-0.13365 v 47.87464 c 0,26.33104 -0.148461,49.6307 -0.329879,51.77702 l -0.329868,3.90238 h -6.453619 -6.453656 l -4.437766,-6.88615 -4.437768,-6.88616 v -19.01495 -19.01403 l -3.314945,-3.2859 -3.31539,-3.2859 v -22.5848 -22.58482 H 22.954686 9.4381508 v 50.63036 50.63031 l 3.1009402,3.43583 3.10094,3.43582 h 4.959954 4.959919 l 1.73029,-1.78522 c 1.712835,-1.76721 1.774374,-1.7852 6.108894,-1.7852 h 4.378601 l 7.546002,7.9059 7.546,7.90591 h 9.300281 c 7.38778,0 9.503871,0.15398 10.290372,0.74885 0.878953,0.6648 -0.412737,0.74591 -11.50633,0.72246 l -12.49642,-0.0264 -3.507633,-3.78281 z"
       id="path485" /><path
       style="fill:#ffffff;stroke-width:0.510059"
       d="m -92.293801,206.95819 c -9.801099,-0.10761 -13.340519,-0.30852 -13.636239,-0.77408 -0.21966,-0.34582 -0.4029,-7.11287 -0.4072,-15.03789 l -0.008,-14.40915 h 5.53229 c 3.042748,0 7.63327,-0.14912 10.201153,-0.33141 l 4.668882,-0.33139 v -6.80941 -6.80941 h -23.972735 -23.97272 l 0.0142,-3.95295 0.0142,-3.95295 11.78518,-9.05352 11.7852,-9.05354 h 23.605883 23.605896 l 3.86117,4.20799 3.861168,4.20797 0.0079,27.04434 0.0079,27.04433 -4.218631,4.19672 -4.21863,4.19671 -7.64021,-0.11851 c -4.202131,-0.0652 -13.596813,-0.18391 -20.877084,-0.26385 z"
       id="path487" /><path
       style="fill:#ffffff;stroke-width:0.510059"
       d="m -40.547551,237.17895 -4.825422,-4.84555 h -25.221309 -25.221332 l -3.930996,-3.82544 -3.931,-3.82543 h -3.32991 -3.32991 l -8.11241,-8.41597 -8.11241,-8.41594 h -48.48872 -48.48872 l -1.84322,2.04022 -1.84323,2.04023 -14.6655,-0.0181 c -12.97332,-0.0159 -14.51836,-0.1022 -13.39034,-0.74703 0.9929,-0.56759 3.75885,-0.73737 12.49642,-0.76702 l 11.22127,-0.0381 2.69364,-3.47515 2.69367,-3.47513 4.65302,-0.33029 c 2.55917,-0.18163 7.19794,-0.33026 10.30839,-0.33026 h 5.65535 l -10.83888,-10.84769 -10.8389,-10.84768 -0.32856,-6.48308 -0.32858,-6.48308 -9.14677,-0.13872 -9.14676,-0.13872 1.70155,-1.25844 c 1.55853,-1.15266 2.33836,-1.29018 9.27739,-1.63615 l 7.57584,-0.3777 2.62533,-2.02831 c 1.44392,-1.11555 9.74062,-7.66 18.43712,-14.54319 l 15.81179,-12.5149 14.28162,0.0472 c 7.8549,0.0259 17.45884,0.19137 21.34213,0.36755 l 7.06048,0.3203 -9.10073,8.43855 c -5.00539,4.6412 -13.40433,12.40178 -18.6643,17.24572 -5.25997,4.84396 -9.56358,9.05295 -9.56358,9.35328 0,0.30037 0.4552,1.28267 1.01158,2.18289 l 1.01158,1.63678 10.03669,0.33615 c 5.52017,0.18487 19.63986,0.33614 31.3771,0.33614 h 21.3404 v 16.34337 16.34336 l 5.99319,5.82425 5.99318,5.82423 32.133655,0.0264 32.133638,0.0264 8.333783,9.66076 8.333749,9.66077 18.189245,0.15136 c 17.6529678,0.14685 18.2494318,0.18449 20.229513,1.2764 l 2.040235,1.12509 -24.237852,0.0226 -24.237818,0.0226 z"
       id="path489" /><path
       style="fill:#ffffff;stroke-width:0.510059"
       d="m -280.99243,125.0937 c 1.44263,-2.53583 0.38194,-2.42277 22.72914,-2.42277 11.45834,0 20.83333,0.0998 20.83333,0.22182 0,0.12201 -0.22384,0.81059 -0.49743,1.53018 l -0.49743,1.30835 h -21.46517 c -17.02553,0 -21.39014,-0.13188 -21.10244,-0.63758 z"
       id="path491" /><path
       style="fill:#ffffff;stroke-width:0.510059"
       d="m -278.98424,173.74156 -1.51474,-0.32453 1.45602,-1.14529 1.45599,-1.1453 h 23.64892 23.6489 v 1.53017 1.53017 l -23.59018,-0.0603 c -12.97459,-0.0333 -24.2718,-0.20639 -25.10491,-0.38488 z"
       id="path493" /><path
       style="fill:#ffffff;stroke-width:0.510059"
       d="m -18.057445,233.65919 c -1.002464,-1.0671 -1.699108,-1.24741 -5.419245,-1.40266 -2.507283,-0.10464 -4.531877,-0.44126 -4.906233,-0.81573 -0.509845,-0.51006 1.333263,-0.63757 9.214947,-0.63757 h 9.8522944 l 2.4911133,1.82864 c 1.3701225,1.00575 2.4911132,1.92386 2.4911132,2.04023 0,0.11637 -2.8290734,0.21158 -6.2868159,0.21158 -5.977101,0 -6.343472,-0.0603 -7.437174,-1.22449 z"
       id="path495" /><path
       style="fill:#ffffff;stroke-width:0.510059"
       d="m 105.15901,219.75196 c -0.18703,-0.18703 -0.34004,-5.53134 -0.34004,-11.87627 v -11.53623 l 2.6966,-2.66312 2.69661,-2.6631 46.09206,0.13024 46.09206,0.13025 7.61283,10.96625 c 4.18708,6.03143 7.81483,11.33507 8.06168,11.78587 0.32364,0.59096 -0.0635,1.55141 -1.38755,3.44288 l -1.8364,2.62327 h -54.67392 c -30.07066,0 -54.82693,-0.15301 -55.01393,-0.34004 z"
       id="path497" /><path
       style="fill:#ffffff;stroke-width:0.510059"
       d="m 159.6035,246.42691 -2.47373,-3.24846 -4.09542,-0.31889 c -2.25243,-0.17539 -7.34069,-0.32027 -11.30721,-0.32195 -6.42026,-0.003 -7.34396,-0.11315 -8.41595,-1.00619 -1.20277,-1.00202 -1.18669,-1.00318 14.15936,-1.02013 l 15.36352,-0.0169 1.21336,1.78171 1.21339,1.78172 12.24142,-0.005 12.24136,-0.005 5.35547,-4.83698 c 5.11996,-4.62422 5.45816,-4.83695 7.68938,-4.83695 2.13546,0 2.66283,-0.28182 6.20396,-3.31538 l 3.87008,-3.31537 H 237.93626 263.01 l 4.29898,-3.66055 c 2.36441,-2.0133 4.29895,-3.8447 4.29895,-4.06978 0,-0.2251 -1.49194,-2.27227 -3.31538,-4.54931 -1.82349,-2.27702 -3.3154,-4.32279 -3.3154,-4.54615 0,-0.22337 4.88165,-5.76737 10.8481,-12.32001 l 10.84806,-11.91387 38.61179,-0.25504 38.61179,-0.25501 5.37136,-3.93739 5.37137,-3.9374 v -13.30974 -13.30977 l -8.49622,-11.82617 c -4.67292,-6.50438 -9.52681,-13.14593 -10.78645,-14.75899 l -2.29023,-2.93363 h -35.07704 c -19.29238,0 -35.4401,0.13933 -35.88385,0.30961 -0.72046,0.27647 -0.8068,2.97795 -0.8068,25.24786 v 24.93827 l 7.52333,-6.6e-4 7.52338,-6.6e-4 3.74343,-3.05972 3.74347,-3.05973 h 4.87906 c 4.84679,0 4.87298,0.006 3.95588,1.02012 -0.50776,0.56107 -1.56125,1.02011 -2.3411,1.02011 -2.38242,0 -3.92955,0.87135 -8.1492,4.58965 l -4.05282,3.57106 h -8.58212 -8.58209 l -9.64923,10.45141 -9.64923,10.45139 -4.463,0.004 -4.46301,0.005 V 144.09337 90.537273 h 66.98369 66.98374 l 1.19795,-1.275144 1.1979,-1.275145 h 12.46999 c 11.02658,0 12.39646,0.08856 11.83499,0.765087 -0.52381,0.631145 -2.34293,0.765426 -10.39112,0.76703 l -9.75617,0.0021 -2.18157,2.824685 c -1.19985,1.553574 -2.46223,2.914912 -2.80531,3.025191 -0.34308,0.110278 -4.92491,0.355003 -10.18187,0.543832 -7.58164,0.272331 -9.48012,0.479199 -9.18103,1.000404 0.20739,0.361396 7.66403,9.481207 16.57035,20.266257 l 16.19332,19.60916 10.32971,0.33469 c 5.68135,0.18407 13.78995,0.33528 18.01917,0.33602 7.38667,9.6e-4 7.73335,0.048 8.80318,1.1868 0.61253,0.65201 0.95858,1.34058 0.76896,1.53019 -0.18956,0.18957 -7.99788,0.34469 -17.35182,0.34469 h -17.00712 l 0.13273,23.08012 0.13268,23.08013 8.60658,0.14014 c 7.6723,0.12492 8.74562,0.24949 9.88739,1.14763 1.13061,0.88932 1.16808,1.01478 0.31945,1.06963 -0.52874,0.0342 -4.97809,0.20632 -9.8874,0.38255 l -8.92602,0.3204 v 1.7852 1.7852 l 15.81181,0.31497 c 8.69649,0.17322 16.06773,0.34537 16.38058,0.38254 0.31285,0.0372 1.22559,0.58401 2.02838,1.21521 l 1.45962,1.14764 -17.84019,0.25502 -17.8402,0.25503 -0.25501,4.87895 -0.25504,4.87892 -4.20797,3.71108 c -2.31441,2.04108 -4.20797,3.91965 -4.20797,4.17458 0,0.26127 4.11014,0.46353 9.41897,0.46353 h 9.41897 l 2.60532,3.44289 2.60535,3.44289 9.73884,0.25504 c 7.15132,0.18725 9.79519,0.42442 9.9507,0.89259 0.16528,0.49751 -2.32128,0.63758 -11.31838,0.63758 h -11.5302 l -2.21338,-2.04025 -2.2134,-2.04021 h -46.1272 -46.12723 l -1.99221,2.04021 -1.99225,2.04025 h -17.97705 -17.97706 l -2.95933,2.48599 c -1.62763,1.36729 -5.36932,4.57929 -8.31489,7.13775 l -5.35563,4.65178 -30.34847,0.0161 -30.34843,0.0161 -6.57211,5.85262 -6.57208,5.85257 H 176.2241 162.07723 Z"
       id="path503" /><path
       style="fill:#ffffff;stroke-width:0.510059"
       d="m 316.327,169.24298 c -0.88416,-0.23399 -0.88661,-0.29554 -0.0484,-1.22171 0.80999,-0.89506 1.67857,-0.9753 10.55689,-0.9753 h 9.67424 l -0.76138,1.14762 c -0.73759,1.11175 -1.0386,1.14995 -9.62581,1.22172 -4.8754,0.0407 -9.28337,-0.0368 -9.7955,-0.17233 z"
       id="path505" /><path
       style="fill:#ffffff;stroke-width:0.510059"
       d="m 430.6185,146.77134 c -11.15114,-0.0767 -20.27483,-0.32628 -20.27483,-0.55469 0,-0.22842 0.53123,-0.91435 1.18053,-1.52432 l 1.18052,-1.10902 h 33.75844 c 18.56718,0 33.75847,0.1367 33.75847,0.3038 0,0.16709 -0.47467,0.97044 -1.05484,1.7852 l -1.05486,1.48139 -13.60933,-0.12148 c -7.48511,-0.0669 -22.73296,-0.18421 -33.8841,-0.26088 z"
       id="path507" /></g></svg>
