<?xml version="1.0" encoding="UTF-8" standalone="no"?>
<!-- Created with Inkscape (http://www.inkscape.org/) -->

<svg
   width="38.140537mm"
   height="13.823mm"
   viewBox="0 0 38.140537 13.823"
   version="1.1"
   id="svg5"
   xml:space="preserve"
   sodipodi:docname="hazardcourse.svg"
   inkscape:version="1.2.2 (b0a8486541, 2022-12-01)"
   xmlns:inkscape="http://www.inkscape.org/namespaces/inkscape"
   xmlns:sodipodi="http://sodipodi.sourceforge.net/DTD/sodipodi-0.dtd"
   xmlns="http://www.w3.org/2000/svg"
   xmlns:svg="http://www.w3.org/2000/svg"><sodipodi:namedview
     id="namedview7"
     pagecolor="#ffffff"
     bordercolor="#000000"
     borderopacity="0.25"
     inkscape:showpageshadow="2"
     inkscape:pageopacity="0.0"
     inkscape:pagecheckerboard="true"
     inkscape:deskcolor="#d1d1d1"
     inkscape:document-units="mm"
     showgrid="false"
     inkscape:zoom="16"
     inkscape:cx="75.656251"
     inkscape:cy="22.8125"
     inkscape:window-width="2515"
     inkscape:window-height="1408"
     inkscape:window-x="45"
     inkscape:window-y="0"
     inkscape:window-maximized="1"
     inkscape:current-layer="layer1" /><defs
     id="defs2"><rect
       x="298.21405"
       y="298.67349"
       width="210.46161"
       height="30.430687"
       id="rect305" /><rect
       x="268.59238"
       y="292.64084"
       width="244.56657"
       height="29.258604"
       id="rect299" /><rect
       x="263.65674"
       y="296.83618"
       width="208.3475"
       height="37.169842"
       id="rect239" /><rect
       x="268.1684"
       y="296.29449"
       width="266.44373"
       height="29.554718"
       id="rect233" /><rect
       x="268.59238"
       y="292.64084"
       width="244.56657"
       height="29.258604"
       id="rect299-3" /><rect
       x="268.59238"
       y="292.64084"
       width="244.56657"
       height="29.258604"
       id="rect299-7" /><rect
       x="268.59238"
       y="292.64084"
       width="244.56657"
       height="29.258604"
       id="rect299-35" /><rect
       x="268.59238"
       y="292.64084"
       width="244.56657"
       height="29.258604"
       id="rect299-3-9" /></defs><g
     inkscape:label="Layer 1"
     inkscape:groupmode="layer"
     id="layer1"
     style="display:inline"
     transform="translate(-66.413704,-67.390305)"><g
       aria-label="HAZ"
       transform="matrix(0.30693216,0,0,0.30693216,-12.469753,-22.562113)"
       id="text297"
       style="font-weight:bold;font-size:20px;font-family:'Caviar Dreams';-inkscape-font-specification:'Caviar Dreams Bold';letter-spacing:5.07733px;white-space:pre;shape-inside:url(#rect299);fill:#ffffff"><path
         d="m 272.07812,305.11977 v 6.46484 h -2.02148 v -15.625 h 2.02148 v 7.13867 h 4.82422 v -7.13867 h 2.02149 v 15.625 h -2.02149 v -6.46484 z"
         id="path13089" /><path
         d="m 293.52264,304.03578 -1.33789,-3.6621 -1.32812,3.6621 z m -0.79101,-8.07617 5.68359,15.625 h -2.14844 l -2.01172,-5.52734 h -4.14062 l -2.00195,5.52734 h -2.15821 l 5.6836,-15.625 z"
         id="path13091" /><path
         d="m 313.29724,297.9811 h -7.40235 v -2.02149 h 10.89844 l -7.86133,13.59375 h 7.42188 v 2.03125 h -10.90821 z"
         id="path13093" /></g><g
       aria-label="RD"
       transform="matrix(0.30675481,0,0,0.30675481,10.105327,-22.506592)"
       id="text297-62"
       style="font-weight:bold;font-size:20px;font-family:'Caviar Dreams';-inkscape-font-specification:'Caviar Dreams Bold';letter-spacing:5.07733px;white-space:pre;shape-inside:url(#rect299-35);display:inline;fill:#ffffff"><path
         d="m 272.07812,297.99086 v 6.5625 h 1.84571 q 1.34765,0 2.30469,-0.95703 0.96679,-0.9668 0.96679,-2.33398 0,-1.35742 -0.96679,-2.31446 -0.95704,-0.95703 -2.30469,-0.95703 z m 1.84571,8.59375 h -1.84571 v 5 h -2.02148 v -15.625 h 4.43359 q 1.88477,0.25391 3.1836,1.55274 1.55273,1.5625 1.55273,3.75 0,2.20703 -1.55273,3.76953 -1.07422,1.07422 -1.64063,1.21094 l 3.4668,5.34179 h -2.45117 z"
         id="path13096" /><path
         d="m 288.591,298.02016 v 11.51367 q 2.41211,0 3.95508,-1.55273 1.73828,-1.73828 1.73828,-4.20899 0,-2.46093 -1.73828,-4.20898 -1.54297,-1.54297 -3.95508,-1.54297 z m -0.53711,-2.06055 q 3.8086,0.0195 5.9375,2.15821 2.33399,2.35351 2.33399,5.65429 0,3.31055 -2.33399,5.6543 -2.1289,2.13867 -5.9375,2.1582 h -1.48437 v -15.625 z"
         id="path13098" /></g><g
       aria-label="λ"
       transform="matrix(0.41370835,0,0,0.34657752,-24.639715,-34.915258)"
       id="text297-5"
       style="font-weight:bold;font-size:20px;font-family:'Caviar Dreams';-inkscape-font-specification:'Caviar Dreams Bold';letter-spacing:5.07733px;white-space:pre;shape-inside:url(#rect299-7);display:inline;fill:#ffffff"><path
         d="m 278.68945,311.58461 h -2.24609 l -2.5293,-5.36133 -2.51953,5.36133 h -2.24609 l 3.64258,-7.8125 -2.82227,-6.01562 h 2.25586 z"
         id="path13101" /></g><g
       aria-label="C"
       transform="matrix(0.30033871,0,0,0.30033871,-10.620879,-13.346694)"
       id="text297-6"
       style="font-weight:bold;font-size:20px;font-family:'Caviar Dreams';-inkscape-font-specification:'Caviar Dreams Bold';letter-spacing:5.07733px;white-space:pre;shape-inside:url(#rect299-3);display:inline;fill:#ffffff"><path
         d="m 282.14648,307.86391 1.51368,1.35742 q -2.77344,2.5293 -5.86914,2.5293 -3.31055,0 -5.64454,-2.33399 -2.33398,-2.33398 -2.33398,-5.64453 0,-3.30078 2.33398,-5.64453 2.33399,-2.34375 5.64454,-2.34375 3.0957,0 5.86914,2.5293 l -1.51368,1.37695 q -2.08984,-1.85547 -4.35546,-1.85547 -2.45118,0 -4.19922,1.73828 -1.73828,1.73829 -1.73828,4.19922 0,2.47071 1.73828,4.20899 1.74804,1.73828 4.19922,1.73828 2.26562,0 4.35546,-1.85547 z"
         id="path13083" /></g><g
       aria-label="URSE
"
       transform="matrix(0.30625633,0,0,0.30625633,0.10277741,-15.148545)"
       id="text297-6-1"
       style="font-weight:bold;font-size:20px;font-family:'Caviar Dreams';-inkscape-font-specification:'Caviar Dreams Bold';letter-spacing:5.07733px;white-space:pre;shape-inside:url(#rect299-3-9);display:inline;fill:#ffffff"><path
         d="m 278.65039,295.95961 h 2.03125 v 11.00586 q -0.26367,1.88477 -1.55273,3.1836 -1.5625,1.5625 -3.75977,1.5625 -2.19727,0 -3.75977,-1.55274 -1.55273,-1.5625 -1.55273,-3.75976 v -10.43946 h 2.03125 v 10.43946 q 0,1.34765 0.95703,2.31445 0.9668,0.95703 2.32422,0.95703 1.36719,0 2.32422,-0.95703 0.95703,-0.95703 0.95703,-2.31445 z"
         id="path13074" /><path
         d="m 290.71014,297.99086 v 6.5625 h 1.84571 q 1.34765,0 2.30468,-0.95703 0.9668,-0.9668 0.9668,-2.33398 0,-1.35742 -0.9668,-2.31446 -0.95703,-0.95703 -2.30468,-0.95703 z m 1.84571,8.59375 h -1.84571 v 5 h -2.02148 v -15.625 h 4.43359 q 1.88477,0.25391 3.1836,1.55274 1.55273,1.5625 1.55273,3.75 0,2.20703 -1.55273,3.76953 -1.07422,1.07422 -1.64063,1.21094 l 3.4668,5.34179 h -2.45117 z"
         id="path13076" /><path
         d="m 309.17614,303.56703 q -1.66015,-0.55664 -2.69531,-1.58203 -1.02539,-1.03515 -1.02539,-2.55859 0,-1.49414 1.06445,-2.56836 1.07422,-1.07422 2.59766,-1.07422 1.50391,0 2.57812,1.06445 0.60547,0.58594 1.01563,1.86524 l -1.83594,0.72266 q -0.33203,-0.89844 -0.60547,-1.17188 -0.47851,-0.46875 -1.15234,-0.46875 -0.68359,0 -1.16211,0.47852 -0.47852,0.46875 -0.47852,1.15234 0,0.68359 0.47852,1.16211 0.53711,0.52734 1.48438,0.9668 1.83593,0.5957 3.11523,1.875 1.43555,1.41601 1.43555,3.4375 0,2.02148 -1.43555,3.45703 -1.42578,1.42578 -3.4375,1.42578 -2.02148,0 -3.44727,-1.43555 -1.14257,-1.14258 -1.44531,-3.1543 l 1.96289,-0.71289 q 0.18555,1.72852 0.90821,2.45118 0.83984,0.83984 2.02148,0.83984 1.18164,0 2.02148,-0.83984 0.83985,-0.83985 0.83985,-2.03125 0,-1.18164 -0.83985,-2.02149 -0.80078,-0.80078 -1.96289,-1.2793 z"
         id="path13078" /><path
         d="m 329.44879,295.95961 v 2.02149 h -6.39649 v 4.77539 h 6.39649 v 2.02148 h -6.39649 v 4.77539 h 6.39649 v 2.03125 h -8.41797 v -15.625 z"
         id="path13080" /></g><path
       style="display:inline;fill:#ffffff;stroke-width:0.00821419"
       d="m 78.45509,80.274373 c -0.258018,-0.02719 -0.488506,-0.08212 -0.689991,-0.164425 -0.743883,-0.303876 -1.280722,-0.936328 -1.452693,-1.711421 -0.04224,-0.190366 -0.05026,-0.274142 -0.04998,-0.521601 3.01e-4,-0.2603 0.01242,-0.366865 0.06592,-0.579756 0.21671,-0.862278 0.889542,-1.533808 1.748886,-1.7455 0.216391,-0.05331 0.315945,-0.06437 0.5791,-0.06437 0.263155,0 0.362708,0.01107 0.5791,0.06437 0.881783,0.21722 1.567138,0.920841 1.764831,1.811869 0.04179,0.188345 0.05015,0.274653 0.05015,0.517494 0,0.24284 -0.0084,0.329148 -0.05015,0.517494 -0.199999,0.90142 -0.89785,1.607883 -1.797688,1.819874 -0.177841,0.0419 -0.288721,0.0543 -0.509279,0.05696 -0.112945,0.0014 -0.220141,9.18e-4 -0.238212,-9.86e-4 z m 0.525911,-0.4121 c 0.230989,-0.04206 0.409891,-0.102734 0.618471,-0.209757 l 0.06011,-0.03084 -0.01999,-0.03453 c -0.01099,-0.01899 -0.166953,-0.289578 -0.346576,-0.601306 -0.179622,-0.311729 -0.329153,-0.569622 -0.332291,-0.573098 -0.0031,-0.0035 -0.03047,0.0049 -0.06075,0.01864 -0.07733,0.03506 -0.152938,0.05084 -0.243639,0.05084 -0.0907,0 -0.166305,-0.01578 -0.243639,-0.05084 -0.03027,-0.01373 -0.05761,-0.02211 -0.06074,-0.01864 -0.0031,0.0035 -0.152682,0.261369 -0.332323,0.573098 -0.179642,0.311728 -0.335602,0.582316 -0.346579,0.601306 l -0.01996,0.03453 0.06011,0.03084 c 0.213073,0.109328 0.416853,0.177154 0.635102,0.211386 0.126605,0.01986 0.127065,0.01988 0.340889,0.0173 0.157791,-0.0019 0.220802,-0.006 0.291806,-0.01892 z M 78.78652,78.258547 c 0.178776,-0.06273 0.295137,-0.253888 0.265133,-0.435567 -0.02884,-0.17462 -0.162052,-0.308332 -0.335762,-0.337016 -0.259492,-0.04285 -0.497471,0.19513 -0.454622,0.454622 0.0055,0.03311 0.0223,0.08546 0.03791,0.117918 0.05016,0.104289 0.171148,0.196315 0.284234,0.216192 0.05815,0.01022 0.14841,0.003 0.203112,-0.01615 z M 78.051716,77.86804 c 0.0027,-0.0071 0.005,-0.02688 0.005,-0.04386 0,-0.05206 0.03054,-0.153848 0.06744,-0.224781 0.03814,-0.07332 0.123133,-0.170301 0.187084,-0.213479 0.0204,-0.01377 0.03812,-0.02579 0.03939,-0.0267 0.0047,-0.0034 -0.693552,-1.206317 -0.701762,-1.209053 -0.0047,-0.0016 -0.04327,0.02 -0.08577,0.0479 -0.279219,0.18334 -0.504451,0.424738 -0.662381,0.709924 -0.150965,0.272611 -0.248628,0.627274 -0.248628,0.902899 v 0.07015 h 0.697327 c 0.628294,0 0.697821,-0.0013 0.702313,-0.01299 z m 2.608883,-0.05919 c 0,-0.272509 -0.09869,-0.63011 -0.248628,-0.900857 -0.122587,-0.221365 -0.309665,-0.443005 -0.50297,-0.595892 -0.08465,-0.06695 -0.234021,-0.165654 -0.2451,-0.161961 -0.0083,0.0028 -0.706539,1.205696 -0.70184,1.209079 0.0013,9.14e-4 0.019,0.01293 0.03939,0.0267 0.06395,0.04318 0.148945,0.140164 0.187084,0.213479 0.0369,0.07093 0.06743,0.172717 0.06743,0.224781 0,0.06237 -0.06855,0.05686 0.707299,0.05686 h 0.697327 z"
       id="path631" /></g></svg>
