<?xml version="1.0" encoding="UTF-8" standalone="no"?>
<!-- Created with Inkscape (http://www.inkscape.org/) -->

<svg
   width="245.13mm"
   height="245.13mm"
   viewBox="0 0 245.13 245.13"
   version="1.1"
   id="svg949"
   xml:space="preserve"
   inkscape:version="1.2.2 (b0a8486541, 2022-12-01)"
   sodipodi:docname="3dsudoku_side.svg"
   xmlns:inkscape="http://www.inkscape.org/namespaces/inkscape"
   xmlns:sodipodi="http://sodipodi.sourceforge.net/DTD/sodipodi-0.dtd"
   xmlns="http://www.w3.org/2000/svg"
   xmlns:svg="http://www.w3.org/2000/svg"><sodipodi:namedview
     id="namedview951"
     pagecolor="#ffffff"
     bordercolor="#000000"
     borderopacity="0.25"
     inkscape:showpageshadow="2"
     inkscape:pageopacity="0.0"
     inkscape:pagecheckerboard="true"
     inkscape:deskcolor="#d1d1d1"
     inkscape:document-units="mm"
     showgrid="false"
     inkscape:zoom="0.91490602"
     inkscape:cx="357.41376"
     inkscape:cy="490.76079"
     inkscape:window-width="2515"
     inkscape:window-height="1408"
     inkscape:window-x="45"
     inkscape:window-y="0"
     inkscape:window-maximized="1"
     inkscape:current-layer="layer1" /><defs
     id="defs946"><rect
       x="315.42126"
       y="333.43698"
       width="173.99722"
       height="153.15884"
       id="rect1021" /><clipPath
       clipPathUnits="userSpaceOnUse"
       id="clipPath1172"><rect
         style="fill:#000000;stroke-width:0.264583"
         id="rect1174"
         width="97.457146"
         height="29.941837"
         x="73.174988"
         y="67.84314" /></clipPath><clipPath
       clipPathUnits="userSpaceOnUse"
       id="clipPath1178"><rect
         style="fill:#000000;stroke-width:0.264583"
         id="rect1180"
         width="79.927124"
         height="27.276363"
         x="173.0896"
         y="102.23298" /></clipPath><clipPath
       clipPathUnits="userSpaceOnUse"
       id="clipPath1527"><rect
         style="fill:#ffffff;stroke-width:0.264583"
         id="rect1529"
         width="237.81268"
         height="72.204742"
         x="173.98784"
         y="44.166756" /></clipPath><clipPath
       clipPathUnits="userSpaceOnUse"
       id="clipPath1533"><rect
         style="fill:#ffffff;stroke-width:0.264583"
         id="rect1535"
         width="278.1037"
         height="68.370071"
         x="-5.6919708"
         y="-32.288811" /></clipPath></defs><g
     inkscape:label="Layer 1"
     inkscape:groupmode="layer"
     id="layer1"
     transform="translate(-5.6077797,-72.734824)"><path
       style="display:inline;fill:#fbfbfb;fill-opacity:1;stroke-width:0.264583"
       d="m -89.998167,94.831303 h -2.929316 V 78.143654 61.456006 l 0.377976,-0.377977 0.377976,-0.377976 h 2.135566 2.135565 v -2.135565 -2.135566 l 0.377976,-0.377976 0.377977,-0.377976 h 8.239881 8.239881 l 0.377976,0.377976 0.377976,0.377976 v 2.135566 2.135565 h 2.778125 2.778125 v 16.687649 16.687649 l -0.377976,0.377976 -0.377975,0.377976 h -2.815924 -2.815922 l -0.377977,-0.377976 -0.377976,-0.377976 V 86.383536 78.69172 h -7.408333 -7.408334 v 7.691816 7.691815 l -0.377976,0.377976 -0.377976,0.377976 z m 11.093601,-23.01875 h 7.408333 v -4.7625 -4.7625 h -7.408333 -7.408334 v 4.7625 4.7625 z m 30.909003,23.008685 -8.287128,-0.01005 -0.330729,-0.375645 -0.330729,-0.375645 v -2.127832 -2.127834 h -2.778125 -2.778125 v -8.995834 -8.995833 h 2.778125 2.778125 V 69.03444 66.256315 h 8.995833 8.995833 v 2.778125 2.778125 h 2.778125 2.778125 v 3.439583 3.439584 h -3.571875 -3.571875 v -2.778125 -2.778125 h -7.408333 -7.408333 v 7.540625 7.540625 h 7.399078 7.399075 l 0.0754,-2.711979 0.0754,-2.71198 3.505729,-0.07383 3.505729,-0.07382 v 3.579553 3.579556 h -2.778125 -2.778125 v 2.135565 2.135566 l -0.377975,0.377976 -0.377976,0.377976 -8.287129,-0.01005 z m 33.734376,0 -5.509004,-0.01005 -0.330729,-0.375645 -0.330729,-0.375645 v -2.127832 -2.127834 h -2.778125 -2.778125 v -8.334375 -8.334375 h -2.778125 -2.778125 v -3.439584 -3.439583 h 2.778125 2.778125 v -4.91369 -4.913691 l 0.377976,-0.377976 0.377975,-0.377984 h 2.683632 2.683632 l 0.377976,0.377976 0.377976,0.377976 v 4.913691 4.91369 h 5.55625 5.5562496 v 3.439584 3.439583 h -5.5562496 -5.55625 v 7.540625 7.540625 h 5.55625 5.5562496 v 2.929316 2.929315 l -0.3779758,0.377976 -0.3779758,0.377976 -5.509003,-0.01005 z m 22.8864581,0 -8.28712842,-0.01005 -0.33072917,-0.375645 -0.33072916,-0.375645 V 91.932062 89.804228 H -3.1014407 -5.8795657 V 78.030269 66.256311 h 3.571875 3.5718751 V 77.236519 88.216728 H 8.6725177 16.080851 V 77.236519 66.256311 h 3.571875 3.571875 v 11.773958 11.773959 h -2.778125 -2.778125 v 2.135565 2.135566 l -0.377976,0.377976 -0.377975,0.377976 -8.2871289,-0.01005 z m 33.7343749,0 -11.065253,-0.01005 -0.330729,-0.375645 -0.330729,-0.375645 V 91.932062 89.804228 H 27.85481 25.076685 v -3.571875 -3.571875 h 2.778125 2.778125 v -2.645834 -2.645833 h 8.202083 8.202083 v -2.116667 -2.116666 h -8.202083 -8.202083 v -3.439584 -3.439583 h 8.995833 8.995833 v 2.778125 2.778125 h 2.778125 2.778125 V 82.94396 94.075359 L 53.802876,94.453335 53.4249,94.831311 42.359646,94.821257 Z M 39.628768,88.21672 h 7.408333 V 86.232345 84.24797 h -7.408333 -7.408333 v 1.984375 1.984375 z m 25.352754,6.604518 -2.730879,-0.01005 -0.330729,-0.375645 -0.330729,-0.375645 V 91.932062 89.804228 H 58.81106 56.032935 V 73.116579 56.42893 l 0.377976,-0.377976 0.377975,-0.377984 h 2.815924 2.815923 l 0.377976,0.377976 0.377976,0.377976 V 72.322821 88.21672 h 2.645833 2.645834 v 2.929316 2.929315 l -0.377976,0.377976 -0.377976,0.377976 -2.730878,-0.01005 z m 45.508338,0 -8.28713,-0.01005 -0.33073,-0.375645 -0.33073,-0.375645 v -2.127832 -2.127834 h -2.778127 -2.778125 v -3.579556 -3.579553 l 3.50573,0.07382 3.505732,0.07383 0.0754,2.71198 0.0754,2.711979 h 7.39908 7.39908 v -4.7625 -4.7625 h -8.20209 -8.20208 v -3.439584 -3.439583 h 8.20208 8.20209 v -4.7625 -4.7625 h -7.40834 -7.40833 v 2.645834 2.645833 h -3.571877 -3.571875 v -3.439583 -3.439584 h 2.778125 2.778127 V 58.564496 56.42893 l 0.37797,-0.377976 0.37798,-0.377984 h 8.23988 8.23988 l 0.37798,0.377976 0.37798,0.377976 v 2.135566 2.135565 h 2.77812 2.77813 v 6.217709 6.217708 h -2.77813 -2.77812 v 2.116667 2.116666 h 2.77812 2.77813 v 6.217708 6.217709 h -2.77813 -2.77812 v 2.135566 2.135565 l -0.37798,0.377976 -0.37798,0.377976 -8.28712,-0.01005 z m 28.4427,0 -11.06525,-0.01005 -0.33073,-0.375645 -0.33073,-0.375645 V 75.244413 56.42893 l 0.37798,-0.377976 0.37797,-0.377984 h 11.01801 11.01801 l 0.37797,0.377976 0.37798,0.377976 v 2.135566 2.135565 h 2.77812 2.77813 V 75.252137 89.80422 h -2.77813 -2.77812 v 2.135566 2.135565 l -0.37798,0.377976 -0.37797,0.377976 -11.06526,-0.01005 z m 2.82538,-6.604518 h 7.40833 V 75.252137 62.287553 h -7.40833 -7.40834 V 75.252137 88.21672 Z m 56.30899,6.604518 -8.28712,-0.01005 -0.33073,-0.375645 -0.33073,-0.375645 v -2.127832 -2.127834 h -2.77812 -2.77813 v -3.579556 -3.579553 l 3.50573,0.07382 3.50573,0.07383 0.0754,2.71198 0.0754,2.711979 h 7.39908 7.39907 v -4.7625 -4.7625 h -8.20208 -8.20209 v -2.778125 -2.778125 h -2.77812 -2.77813 V 66.91777 60.700061 h 2.77813 2.77812 V 58.564496 56.42893 l 0.37799,-0.377976 0.37795,-0.377984 h 8.2399 8.23989 l 0.37796,0.377976 0.37798,0.377976 v 2.135566 2.135565 h 2.77812 2.77813 v 3.439584 3.439583 h -3.57188 -3.57187 v -2.645833 -2.645834 h -7.40833 -7.40834 v 4.7625 4.7625 h 8.20209 8.20208 v 2.778125 2.778125 h 2.77812 2.77813 v 6.217708 6.217709 h -2.77813 -2.77812 v 2.135566 2.135565 l -0.37798,0.377976 -0.37796,0.377976 -8.28715,-0.01005 z m 30.95625,0 -8.28712,-0.01005 -0.33073,-0.375645 -0.33073,-0.375645 v -2.127832 -2.127834 h -2.77812 -2.77813 V 78.030269 66.256311 h 3.57188 3.57187 v 10.980208 10.980209 h 7.40834 7.40833 V 77.236519 66.256311 h 3.57187 3.57188 v 11.773958 11.773959 h -2.77813 -2.77812 v 2.135565 2.135566 l -0.37798,0.377976 -0.37796,0.377976 -8.28715,-0.01005 z m 33.99896,0 -11.06525,-0.01005 -0.33072,-0.375645 -0.33073,-0.375645 v -2.127832 -2.127834 h -2.77813 -2.77812 v -8.995834 -8.995833 h 2.77812 2.77813 V 69.03444 66.256315 h 8.20208 8.20208 v -4.91369 -4.913691 l 0.37799,-0.377976 0.37795,-0.377984 h 2.81594 2.81593 l 0.37796,0.377976 0.37798,0.377976 v 18.823215 18.823214 l -0.37798,0.377976 -0.37796,0.377976 -11.06527,-0.01005 z m -2.73087,-6.604518 h 7.40833 V 80.676095 73.13547 h -7.40833 -7.40833 v 7.540625 7.540625 z m 30.909,6.604518 -8.28713,-0.01005 -0.33072,-0.375645 -0.33073,-0.375645 v -2.127832 -2.127834 h -2.77813 -2.77812 v -8.995834 -8.995833 h 2.77812 2.77813 V 69.03444 66.256315 h 8.99583 8.99583 v 2.778125 2.778125 h 2.77813 2.77812 v 8.995833 8.995834 h -2.77812 -2.77813 v 2.135565 2.135566 l -0.37798,0.377976 -0.37796,0.377976 -8.28714,-0.01005 z m 0.0473,-6.604518 h 7.40833 V 80.676095 73.13547 h -7.40833 -7.40833 v 7.540625 7.540625 z m 19.92879,6.604518 -2.86317,-0.01005 -0.33072,-0.375645 -0.33073,-0.375645 V 75.244413 56.42893 l 0.37798,-0.377976 0.37796,-0.377984 h 2.81593 2.81594 l 0.37795,0.377976 0.37799,0.377976 v 10.469941 10.46994 h 1.98437 1.98438 v -2.778125 -2.778125 h 2.77812 2.77813 v -2.778125 -2.778125 h 3.43958 3.43958 v 3.439584 3.439583 h -2.77812 -2.77813 v 2.778125 2.778125 h -2.77812 -2.77813 v 1.984375 1.984375 h 2.77813 2.77812 v 2.778125 2.778125 h 2.77813 2.77812 v 2.929316 2.929315 l -0.37798,0.377976 -0.37796,0.377976 h -2.68364 -2.68364 l -0.37796,-0.377976 -0.37798,-0.377976 V 91.939786 89.80422 h -2.77813 -2.77812 V 87.026095 84.24797 h -1.98438 -1.98437 v 4.913691 4.91369 l -0.37799,0.377976 -0.37795,0.377976 -2.86319,-0.01005 z m 36.38021,0 -8.28712,-0.01005 -0.33073,-0.375645 -0.33073,-0.375645 v -2.127832 -2.127834 h -2.77813 -2.77812 V 78.030269 66.256311 h 3.57187 3.57188 v 10.980208 10.980209 h 7.40833 7.40833 V 77.236519 66.256311 h 2.92931 2.92934 l 0.37795,0.377976 0.37799,0.377977 v 11.018005 11.018007 l -0.37799,0.377976 -0.37795,0.377976 h -2.13559 -2.13556 v 2.135565 2.135566 l -0.37798,0.377976 -0.37796,0.377976 -8.28714,-0.01005 z"
       id="path1488"
       clip-path="url(#clipPath1527)"
       transform="matrix(0.88162396,0,0,0.88162396,-73.393823,141.88082)" /><path
       style="display:inline;fill:#ffffff;fill-opacity:1;stroke-width:0.264583"
       d="M 19.554043,29.559359 H 16.624727 V 12.87171 -3.815938 l 0.377976,-0.377977 0.377976,-0.377976 h 2.135566 2.135565 v -2.135565 -2.135566 l 0.377976,-0.377976 0.377977,-0.377976 h 8.239881 8.239881 l 0.377976,0.377976 0.377976,0.377976 v 2.135566 2.135565 h 2.778125 2.778125 v 16.687649 16.687649 l -0.377976,0.377976 -0.377975,0.377976 H 41.627852 38.81193 L 38.433953,29.181383 38.055977,28.803407 V 21.111592 13.419776 H 30.647644 23.23931 v 7.691816 7.691815 l -0.377976,0.377976 -0.377976,0.377976 z M 30.647644,6.540609 h 7.408333 v -4.7625 -4.7625 H 30.647644 23.23931 v 4.7625 4.7625 z M 61.556647,29.549294 53.269519,29.539244 52.93879,29.163599 52.608061,28.787954 V 26.660122 24.532288 H 49.829936 47.051811 V 15.536454 6.540621 h 2.778125 2.778125 V 3.762496 0.984371 h 8.995833 8.995833 v 2.778125 2.778125 h 2.778125 2.778125 v 3.439583 3.439584 H 72.584102 69.012227 V 10.641663 7.863538 h -7.408333 -7.408333 v 7.540625 7.540625 h 7.399078 7.399075 l 0.0754,-2.711979 0.0754,-2.71198 3.505729,-0.07383 3.505729,-0.07382 v 3.579553 3.579556 h -2.778125 -2.778125 v 2.135565 2.135566 l -0.377975,0.377976 -0.377976,0.377976 -8.287129,-0.01005 z m 33.734376,0 -5.509004,-0.01005 -0.330729,-0.375645 -0.330729,-0.375645 V 26.660122 24.532288 H 86.342436 83.564311 V 16.197913 7.863538 H 80.786186 78.008061 V 4.423954 0.984371 h 2.778125 2.778125 v -4.91369 -4.913691 l 0.377976,-0.377976 0.377975,-0.377984 h 2.683632 2.683632 l 0.377976,0.377976 0.377976,0.377976 v 4.913691 4.91369 h 5.55625 5.556252 V 4.423947 7.86353 h -5.556252 -5.55625 v 7.540625 7.540625 h 5.55625 5.556252 v 2.929316 2.929315 l -0.37798,0.377976 -0.37797,0.377976 -5.509007,-0.01005 z m 22.886457,0 -8.28713,-0.01005 -0.33073,-0.375645 -0.33073,-0.375645 v -2.127836 -2.127834 h -2.77812 -2.77813 V 12.758325 0.984367 h 3.57188 3.57187 v 10.980208 10.980209 h 7.40834 7.40833 V 11.964575 0.984367 h 3.57188 3.57187 v 11.773958 11.773959 h -2.77812 -2.77813 v 2.135565 2.135566 l -0.37797,0.377976 -0.37798,0.377976 -8.28713,-0.01005 z m 33.73438,0 -11.06526,-0.01005 -0.33073,-0.375645 -0.33073,-0.375645 v -2.127836 -2.127834 h -2.77812 -2.77813 v -3.571875 -3.571875 h 2.77813 2.77812 V 14.7427 12.096867 h 8.20209 8.20208 V 9.9802 7.863534 h -8.20208 -8.20209 V 4.42395 0.984367 h 8.99584 8.99583 v 2.778125 2.778125 h 2.77813 2.77812 v 11.131399 11.131399 l -0.37797,0.377976 -0.37798,0.377976 -11.06525,-0.01005 z m -2.73088,-6.604518 h 7.40833 v -1.984375 -1.984375 h -7.40833 -7.40834 v 1.984375 1.984375 z m 25.35275,6.604518 -2.73088,-0.01005 -0.33073,-0.375645 -0.33073,-0.375645 v -2.127836 -2.127834 h -2.77812 -2.77813 V 7.844635 -8.843014 l 0.37798,-0.377976 0.37798,-0.377984 h 2.81592 2.81592 l 0.37798,0.377976 0.37797,0.377976 V 7.050877 22.944776 h 2.64584 2.64583 v 2.929316 2.929315 l -0.37797,0.377976 -0.37798,0.377976 -2.73088,-0.01005 z m 45.50834,0 -8.28713,-0.01005 -0.33073,-0.375645 -0.33073,-0.375645 v -2.127832 -2.127834 h -2.77813 -2.77812 v -3.579556 -3.579553 l 3.50573,0.07382 3.50573,0.07383 0.0754,2.71198 0.0754,2.711979 h 7.39908 7.39908 v -4.7625 -4.7625 h -8.20209 -8.20208 V 9.980204 6.540621 h 8.20208 8.20209 v -4.7625 -4.7625 h -7.40834 -7.40833 v 2.645834 2.645833 h -3.57188 -3.57187 v -3.439583 -3.439584 h 2.77812 2.77813 v -2.135569 -2.135566 l 0.37797,-0.377976 0.37798,-0.377984 h 8.23988 8.23988 l 0.37798,0.377976 0.37798,0.377976 v 2.135566 2.135565 h 2.77812 2.77813 v 6.217709 6.217708 h -2.77813 -2.77812 v 2.116667 2.116666 h 2.77812 2.77813 v 6.217708 6.217709 h -2.77813 -2.77812 v 2.135566 2.135565 l -0.37798,0.377976 -0.37798,0.377976 -8.28712,-0.01005 z m 28.4427,0 -11.06525,-0.01005 -0.33073,-0.375645 -0.33073,-0.375645 V 9.972469 -8.843014 l 0.37798,-0.377976 0.37797,-0.377984 h 11.01801 11.01801 l 0.37797,0.377976 0.37798,0.377976 v 2.135566 2.135565 h 2.77812 2.77813 V 9.980193 24.532276 h -2.77813 -2.77812 v 2.135566 2.135565 l -0.37798,0.377976 -0.37797,0.377976 -11.06526,-0.01005 z m 2.82538,-6.604518 h 7.40833 V 9.980193 -2.984391 h -7.40833 -7.40834 V 9.980193 22.944776 Z m 56.30899,6.604518 -8.28712,-0.01005 -0.33073,-0.375645 -0.33073,-0.375645 v -2.127832 -2.127834 h -2.77812 -2.77813 v -3.579556 -3.579553 l 3.50573,0.07382 3.50573,0.07383 0.0754,2.71198 0.0754,2.711979 h 7.39908 7.39907 v -4.7625 -4.7625 h -8.20208 -8.20209 V 10.641663 7.863538 h -2.77812 -2.77813 V 1.645826 -4.571883 h 2.77813 2.77812 v -2.135565 -2.135566 l 0.37799,-0.377976 0.37795,-0.377984 h 8.2399 8.23989 l 0.37796,0.377976 0.37798,0.377976 v 2.135566 2.135565 h 2.77812 2.77813 v 3.439584 3.439583 h -3.57188 -3.57187 v -2.645833 -2.645834 h -7.40833 -7.40834 v 4.7625 4.7625 h 8.20209 8.20208 v 2.778125 2.778125 h 2.77812 2.77813 v 6.217708 6.217709 h -2.77813 -2.77812 v 2.135566 2.135565 l -0.37798,0.377976 -0.37796,0.377976 -8.28715,-0.01005 z m 30.95625,0 -8.28712,-0.01005 -0.33073,-0.375645 -0.33073,-0.375645 v -2.127832 -2.127834 h -2.77812 -2.77813 V 12.758325 0.984367 h 3.57188 3.57187 v 10.980208 10.980209 h 7.40834 7.40833 V 11.964575 0.984367 h 3.57187 3.57188 v 11.773958 11.773959 h -2.77813 -2.77812 v 2.135565 2.135566 l -0.37798,0.377976 -0.37796,0.377976 -8.28715,-0.01005 z m 33.99896,0 -11.06525,-0.01005 -0.33072,-0.375645 -0.33073,-0.375645 v -2.127832 -2.127834 h -2.77813 -2.77812 V 15.536454 6.540621 h 2.77812 2.77813 V 3.762496 0.984371 h 8.20208 8.20208 v -4.91369 -4.913691 l 0.37799,-0.377976 0.37795,-0.377984 h 2.81594 2.81593 l 0.37796,0.377976 0.37798,0.377976 V 9.980197 28.803411 l -0.37798,0.377976 -0.37796,0.377976 -11.06527,-0.01005 z m -2.73087,-6.604518 h 7.40833 V 15.404151 7.863526 h -7.40833 -7.40833 v 7.540625 7.540625 z m 30.909,6.604518 -8.28713,-0.01005 -0.33072,-0.375645 -0.33073,-0.375645 v -2.127832 -2.127834 h -2.77813 -2.77812 V 15.536454 6.540621 h 2.77812 2.77813 V 3.762496 0.984371 h 8.99583 8.99583 v 2.778125 2.778125 h 2.77813 2.77812 v 8.995833 8.995834 h -2.77812 -2.77813 v 2.135565 2.135566 l -0.37798,0.377976 -0.37796,0.377976 -8.28714,-0.01005 z m 0.0473,-6.604518 h 7.40833 V 15.404151 7.863526 h -7.40833 -7.40833 v 7.540625 7.540625 z m 19.92879,6.604518 -2.86317,-0.01005 -0.33072,-0.375645 -0.33073,-0.375645 V 9.972469 -8.843014 l 0.37798,-0.377976 0.37796,-0.377984 h 2.81593 2.81594 l 0.37795,0.377976 0.37799,0.377976 v 10.469941 10.46994 h 1.98437 1.98438 V 9.318734 6.540609 h 2.77812 2.77813 V 3.762484 0.984359 h 3.43958 3.43958 v 3.439584 3.439583 h -2.77812 -2.77813 v 2.778125 2.778125 h -2.77812 -2.77813 v 1.984375 1.984375 h 2.77813 2.77812 v 2.778125 2.778125 h 2.77813 2.77812 v 2.929316 2.929315 l -0.37798,0.377976 -0.37796,0.377976 h -2.68364 -2.68364 l -0.37796,-0.377976 -0.37798,-0.377976 v -2.135565 -2.135566 h -2.77813 -2.77812 v -2.778125 -2.778125 h -1.98438 -1.98437 v 4.913691 4.91369 l -0.37799,0.377976 -0.37795,0.377976 -2.86319,-0.01005 z m 36.38021,0 -8.28712,-0.01005 -0.33073,-0.375645 -0.33073,-0.375645 v -2.127832 -2.127834 h -2.77813 -2.77812 V 12.758325 0.984367 h 3.57187 3.57188 v 10.980208 10.980209 h 7.40833 7.40833 V 11.964575 0.984367 h 2.92931 2.92934 l 0.37795,0.377976 0.37799,0.377977 v 11.018005 11.018007 l -0.37799,0.377976 -0.37795,0.377976 h -2.13559 -2.13556 v 2.135565 2.135566 l -0.37798,0.377976 -0.37796,0.377976 -8.28714,-0.01005 z"
       id="path1488-0"
       clip-path="url(#clipPath1533)"
       transform="matrix(0.62979993,0,0,0.62979993,78.114623,165.33736)" /><path
       style="fill:#ffffff;fill-opacity:1;stroke-width:0.196827"
       d="m 42.417827,232.14342 -0.450857,-0.0125 -6.380467,-3.70141 -6.380466,-3.70139 -0.262436,-0.35888 -0.262433,-0.35891 v -7.55965 -7.55964 l 0.567921,-0.52184 0.56792,-0.52185 1.454559,-0.76851 1.45456,-0.76853 1.323574,0.76125 1.323575,0.76125 v 0.10949 0.10948 l -1.193531,0.65615 -1.193531,0.65615 0.06179,0.0499 0.06177,0.0498 4.67486,2.69971 4.674862,2.69972 4.674407,-2.69737 4.674414,-2.69737 0.06177,-0.0522 0.06179,-0.0521 -1.193535,-0.65614 -1.193531,-0.65616 0.0037,-0.10215 0.0037,-0.10215 1.31666,-0.77022 1.316672,-0.77022 1.457694,0.77022 1.457696,0.77022 0.56792,0.52184 0.567918,0.52181 v 7.57547 7.57547 l -0.344443,0.40122 -0.344442,0.40123 -6.339665,3.65552 -6.339666,3.65553 -0.450853,-0.0125 z m -1.484196,-3.94562 0.14762,0.0213 v -5.4082 -5.40818 l -0.44286,-0.2845 -0.44286,-0.28449 -4.280981,-2.46556 -4.280979,-2.46556 v 5.47024 5.47025 l 4.576219,2.66665 4.576221,2.66663 z m 3.058788,-0.0116 0.155599,-0.0656 4.568242,-2.63666 4.568241,-2.63665 v -5.47238 -5.4724 l -4.280976,2.46557 -4.28098,2.46557 -0.44286,0.28448 -0.44286,0.28449 v 5.42461 5.42458 l 0.155594,-0.0656 z m -22.025968,-7.84366 -0.317851,0.003 -4.898057,-2.8154 -4.898055,-2.8154 -1.62714,-0.94345 -1.627138,-0.94347 -0.1935088,-0.36157 -0.1935066,-0.36158 v -7.47624 -7.47625 l 0.1181216,-0.30783 0.1181206,-0.30783 1.7258812,-0.98765 1.725882,-0.98764 h 0.2159 0.215898 l 1.286488,0.70713 1.286486,0.70716 -0.09875,0.1598 -0.09875,0.15978 -1.102435,0.62217 -1.102433,0.62218 0.0691,0.0572 0.0691,0.0572 4.034947,2.31496 4.034947,2.31495 0.602923,0.36393 0.602925,0.3639 1.991676,-1.15738 1.991676,-1.15737 0.210988,0.60523 0.210986,0.60524 0.488535,0.64052 0.488531,0.64049 -1.965538,1.13695 -1.965542,1.13697 v 5.48949 5.4895 l 0.7381,-0.44504 0.738101,-0.44503 0.388242,-0.25991 0.38824,-0.25991 h 0.160993 0.16099 l -0.05716,1.61016 -0.05716,1.61019 -1.771441,1.04358 -1.771439,1.04359 -0.317851,0.003 z m -1.60121,-3.95222 0.04921,0.0191 v -5.48978 -5.48978 l -4.627889,-2.67852 -4.627892,-2.67854 h -0.09907 -0.09907 l 0.05232,5.44083 0.05231,5.44087 4.625426,2.70836 4.625427,2.70839 0.04921,0.0191 z m 42.760598,3.87504 -0.492068,0.0902 -1.771439,-1.05184 -1.771439,-1.05184 -0.05715,-1.61017 -0.05715,-1.61016 h 0.160991 0.160989 l 0.388234,0.25991 0.388247,0.2599 0.738097,0.44504 0.738107,0.44505 v -5.50644 -5.50644 l -1.969344,-1.11504 -1.96933,-1.11505 0.492329,-0.64548 0.492331,-0.64547 0.210685,-0.60441 0.210695,-0.60439 1.992219,1.14603 1.992208,1.14606 0.912237,-0.52412 0.912252,-0.52414 3.77188,-2.16508 3.771882,-2.1651 0.0025,-0.11563 0.0025,-0.11562 -1.071269,-0.52455 -1.071269,-0.52453 -0.116687,-0.18875 -0.116686,-0.18873 0.843474,-0.42692 0.843462,-0.42688 0.522594,-0.36805 0.522593,-0.36805 1.740912,1.01056 1.740913,1.0106 0.246026,0.3065 0.246041,0.30651 v 7.61682 7.61682 l -0.344455,0.39752 -0.344445,0.39752 -6.200032,3.5738 -6.200046,3.5738 -0.492068,0.0902 z m 6.052419,-6.59906 4.674637,-2.71264 0.05228,-5.44043 0.05228,-5.44044 h -0.08612 -0.0861 l -4.640839,2.67517 -4.640852,2.67517 v 5.47792 5.4779 z m -26.442837,-5.26878 -0.374796,0.10385 -0.283285,-0.10972 -0.283285,-0.10971 -6.113582,-3.51924 -6.113584,-3.51925 -0.44286,-0.49786 -0.442861,-0.49786 v -7.45746 -7.45746 l 0.442861,-0.49346 0.44286,-0.49346 6.200042,-3.57944 6.200039,-3.57943 0.505601,0.0127 0.505601,0.0128 6.186508,3.56481 6.186508,3.56482 0.442858,0.49529 0.44286,0.49529 v 7.45743 7.45748 l -0.44286,0.49862 -0.442858,0.49862 -6.120487,3.5244 -6.120485,3.5244 -0.374795,0.10385 z M 40.933207,204.403 h 0.148044 v -5.37781 -5.37779 l -1.722233,-0.99183 -1.722234,-0.99181 -2.657161,-1.52542 -2.657159,-1.52539 -0.25079,-0.20294 -0.25079,-0.20291 -0.08997,0.0898 -0.08997,0.09 -0.01401,5.2842 -0.01401,5.28423 0.256373,0.24021 0.256375,0.24022 4.329762,2.48352 4.329763,2.48352 h 0.148045 z m 3.243804,-0.0885 0.340189,-0.13053 4.302653,-2.47856 4.302659,-2.47855 0.08425,-0.21968 0.08424,-0.21969 -0.05254,-5.26865 -0.05254,-5.26864 -2.952404,1.70479 -2.952398,1.70479 -1.722233,1.00194 -1.722233,1.00193 v 5.39069 5.39069 z m -1.760507,-13.3062 0.252705,0.0101 4.520342,-2.60509 4.520344,-2.6051 v -0.13245 -0.1325 l -4.62543,-2.66628 -4.625427,-2.66628 -4.625428,2.66628 -4.625427,2.66628 v 0.13236 0.13238 l 4.477809,2.59478 4.477805,2.59477 0.252707,0.0102 z m -20.452806,5.52035 -0.466703,-0.001 -0.492066,-0.25854 -0.492067,-0.25853 -1.673028,-0.95494 -1.673027,-0.95492 -1.377786,-0.82112 -1.377788,-0.82112 -0.984132,-0.54598 -0.984135,-0.54603 -1.869852,-1.08586 -1.869854,-1.08588 -0.2460339,-0.30647 -0.2460315,-0.30647 v -7.55323 -7.55316 l 0.1917063,-0.3582 0.1917085,-0.35821 6.1929246,-3.57787 6.192926,-3.57786 0.568966,-0.21476 0.568963,-0.21476 6.271951,3.61557 6.271949,3.61553 0.503115,0.43234 0.503113,0.43232 v 2.11648 2.11649 l -1.377788,0.84136 -1.377786,0.84135 -0.05782,-1.36574 -0.05782,-1.36575 -0.138996,0.003 -0.138998,0.003 -4.527013,2.61374 -4.527016,2.61374 -0.05234,5.45273 -0.05234,5.45271 h 0.09286 0.09287 l 1.001454,-0.59047 1.001457,-0.59049 h 0.188168 0.188163 v 1.55014 1.55015 l -1.747597,1.00861 -1.747598,1.00859 -0.466701,-0.001 z m -1.549249,-4.7891 0.09841,-0.81925 -0.05987,-4.62544 -0.05987,-4.62541 -4.45286,-2.55875 -4.452859,-2.55874 -0.260305,-0.0637 -0.260304,-0.0637 v 5.38948 5.38948 l 3.761265,2.15357 3.761264,2.15359 0.913369,0.52398 0.913369,0.52403 z m 1.458344,-12.54038 0.178969,0.0102 4.348044,-2.49101 4.348044,-2.49101 0.261367,-0.23772 0.26137,-0.23772 -4.666413,-2.69816 -4.666414,-2.69817 -3.861677,2.21563 -3.861676,2.21564 -0.853061,0.52485 -0.853061,0.52485 4.592769,2.67648 4.592769,2.67647 0.17897,0.0102 z m 41.056226,17.32874 -0.492067,3.9e-4 -1.722243,-1.00858 -1.72223,-1.00858 v -1.65477 -1.65477 l 0.44286,0.23479 0.442858,0.23477 0.734189,0.46104 0.73419,0.46106 h 0.105445 0.105445 l -0.05228,-5.45273 -0.05228,-5.45272 -4.527011,-2.61374 -4.52701,-2.61374 -0.139002,-0.003 -0.138998,-0.003 -0.05778,1.36574 -0.05778,1.36577 -1.377786,-0.84137 -1.377791,-0.84135 v -2.1162 -2.11649 l 0.503112,-0.43231 0.503117,-0.43233 6.250738,-3.60334 6.25075,-3.60333 0.436707,0.1096 0.436694,0.1096 6.193655,3.56781 6.193656,3.56782 0.344443,0.39752 0.344456,0.39752 v 7.61682 7.61681 l -0.24604,0.30794 -0.246039,0.30793 -1.27937,0.74624 -1.279372,0.74624 -0.787302,0.43637 -0.787315,0.43639 -3.83811,2.22192 -3.838126,2.22191 -0.492067,0.26047 -0.492066,0.26046 -0.492069,3.8e-4 z m 2.422335,-4.38612 0.825304,-0.47263 1.968257,-1.14286 1.968272,-1.14286 0.590483,-0.32334 0.590483,-0.32334 1.328578,-0.77079 1.328579,-0.77082 v -5.38523 -5.38525 l -0.251131,0.0637 -0.251121,0.0637 -4.461016,2.55874 -4.461019,2.55875 -0.0609,4.52703 -0.0609,4.52698 0.0604,0.9455 0.0604,0.94549 z m -2.364941,-12.93724 0.15581,0.005 4.469617,-2.58268 4.469615,-2.58269 0.170138,-0.0999 0.170151,-0.1 -0.859037,-0.52858 -0.859037,-0.52857 -3.854497,-2.2115 -3.854498,-2.2115 -4.671802,2.69301 -4.671814,2.69301 0.178487,0.17849 0.178487,0.17848 4.411284,2.54673 4.411285,2.54672 0.155811,0.005 z m -20.527375,-4.81734 h -1.366146 l -0.05503,-2.25544 -0.05501,-2.25544 -4.625428,-2.67453 -4.625427,-2.67452 -0.05783,1.33788 -0.05782,1.33788 h -0.139886 -0.139873 l -1.278497,-0.74289 -1.278496,-0.74289 -0.05557,-2.08142 -0.05555,-2.08145 0.350805,-0.40776 0.350805,-0.40775 6.341456,-3.65685 6.341454,-3.65685 h 0.407854 0.407855 l 6.339664,3.65554 6.339671,3.65553 0.344441,0.40121 0.344444,0.40123 -0.0012,2.09408 -0.0012,2.09408 -1.355386,0.73809 -1.355373,0.7381 h -0.110817 -0.110954 l -0.05778,-1.33788 -0.05767,-1.33788 -4.625425,2.67452 -4.625428,2.67453 -0.05503,2.25544 -0.05503,2.25544 z m 0.140261,-7.08021 0.238675,-0.086 4.485165,-2.59164 4.485172,-2.59166 0.05355,-0.0461 0.05366,-0.046 -4.580614,-2.63636 -4.580618,-2.63636 H 42.45905 42.163809 l -4.589885,2.64169 -4.58989,2.64169 0.259702,0.14824 0.259698,0.14827 4.4286,2.57012 4.428604,2.57013 z"
       id="path1549" /></g></svg>
