<?xml version="1.0" encoding="UTF-8" standalone="no"?>
<!-- Created with Inkscape (http://www.inkscape.org/) -->

<svg
   width="212.95599mm"
   height="220.51131mm"
   viewBox="0 0 212.956 220.51131"
   version="1.1"
   id="svg5"
   xml:space="preserve"
   inkscape:version="1.2.2 (b0a8486541, 2022-12-01)"
   sodipodi:docname="aaronfbianchi_logo.svg"
   xmlns:inkscape="http://www.inkscape.org/namespaces/inkscape"
   xmlns:sodipodi="http://sodipodi.sourceforge.net/DTD/sodipodi-0.dtd"
   xmlns="http://www.w3.org/2000/svg"
   xmlns:svg="http://www.w3.org/2000/svg"><sodipodi:namedview
     id="namedview7"
     pagecolor="#ffffff"
     bordercolor="#000000"
     borderopacity="0.25"
     inkscape:showpageshadow="2"
     inkscape:pageopacity="0.0"
     inkscape:pagecheckerboard="true"
     inkscape:deskcolor="#d1d1d1"
     inkscape:document-units="mm"
     showgrid="false"
     inkscape:zoom="1.2938725"
     inkscape:cx="432.42283"
     inkscape:cy="425.8534"
     inkscape:window-width="2515"
     inkscape:window-height="1408"
     inkscape:window-x="45"
     inkscape:window-y="0"
     inkscape:window-maximized="1"
     inkscape:current-layer="layer1" /><defs
     id="defs2" /><g
     inkscape:label="Layer 1"
     inkscape:groupmode="layer"
     id="layer1"
     transform="translate(-22.523872,-1.8620337)"><path
       style="fill:#ffffff;fill-opacity:1;stroke-width:0.240743;stroke-dasharray:none"
       d="m 127.96866,211.92025 -0.36088,0.36088 -0.0433,-0.71251 -0.0433,-0.71251 -0.0168,-6.36967 -0.0168,-6.36967 -0.6763,-2.16328 -0.6763,-2.16328 -1.0843,-2.81325 -1.08431,-2.81324 -0.80311,-1.0518 -0.8031,-1.0518 -0.59779,-0.39168 -0.59779,-0.39169 -0.77506,-1.39184 -0.77505,-1.39184 -0.43573,-0.86001 -0.43573,-0.86002 -0.39077,-0.3243 -0.39076,-0.32431 -0.35748,-0.69129 -0.35749,-0.6913 0.67432,0.34871 0.67433,0.3487 1.78476,2.20792 1.78475,2.20791 1.36532,0.92718 1.36531,0.92717 0.73759,1.15601 0.73759,1.15601 0.84726,1.93515 0.84726,1.93514 0.25235,1.06942 0.25235,1.06942 0.81729,1.68208 0.81729,1.68208 0.1096,-6.48938 0.1096,-6.48938 0.27856,-0.84127 0.27855,-0.84128 1.01769,-1.48659 1.01769,-1.4866 2.0431,-2.33796 2.0431,-2.33797 1.2627,-1.40215 1.2627,-1.40213 1.04192,-1.62369 1.04191,-1.6237 0.40714,-0.33624 0.40715,-0.33625 -0.22503,0.57661 -0.22502,0.57661 -0.73127,1.6163 -0.73127,1.6163 -1.58128,2.22954 -1.58128,2.22953 -1.13565,1.53687 -1.13564,1.53686 -0.76018,1.04282 -0.76017,1.04282 -0.49622,1.50652 -0.49621,1.50652 -0.13126,3.24492 -0.13125,3.24493 -0.31016,5.52838 -0.31017,5.52839 0.0552,1.97033 0.0552,1.97032 0.29462,0.81475 0.29461,0.81475 -0.16061,0.8561 -0.16059,0.85611 -0.49187,0.6253 -0.49186,0.62529 h -0.35137 -0.35139 l 0.15489,-1.16753 0.15487,-1.16753 -0.50715,-1.14649 -0.50714,-1.14649 -0.0108,-0.75063 -0.0108,-0.75063 -0.31607,-0.7211 -0.31607,-0.72109 -0.17084,1.92292 -0.17083,1.92292 -0.22301,1.914 -0.22303,1.91401 -0.36087,0.36087 z m -4.4037,-3.06957 -0.22236,0.8036 -0.12603,-0.36054 -0.12604,-0.36055 -0.74845,-2.44418 -0.74844,-2.44418 -0.2539,-1.28147 -0.25389,-1.28148 -0.20168,-1.35098 -0.20166,-1.35099 -0.63116,-0.99983 -0.63117,-0.99983 -0.23276,-1.22737 -0.23277,-1.22738 v -0.7713 -0.77132 l -1.39746,-2.74125 -1.39745,-2.74127 -0.27041,-0.48073 -0.27041,-0.48073 -0.86203,-1.85665 -0.86202,-1.85665 -2.41629,-2.34973 -2.41629,-2.34974 -1.43604,-1.73911 -1.43605,-1.73912 -1.04442,-1.98654 -1.04441,-1.98653 -0.17871,-0.60092 -0.17869,-0.60091 0.91827,1.20183 0.91826,1.20182 1.62796,2.06527 1.62797,2.06527 1.5456,1.31944 1.54562,1.31943 0.77119,0.87834 0.77119,0.87833 1.84094,1.13398 1.84095,1.13397 0.82625,0.61211 0.82624,0.6121 1.86814,2.25293 1.86813,2.25294 0.63712,1.71308 0.63712,1.71308 0.42835,0.96147 0.42835,0.96146 0.38372,1.08163 0.38373,1.08165 0.48944,2.83959 0.48945,2.8396 0.0541,3.69688 0.0541,3.69688 -0.29152,0.29297 -0.29152,0.29297 -0.22183,-0.58346 -0.22183,-0.58345 -0.1539,-3.12125 -0.15391,-3.12124 -0.13309,-1.27682 -0.13308,-1.2768 -0.64185,0.1383 -0.64185,0.13828 -0.78118,-0.22679 -0.78119,-0.22681 v 0.68597 0.68598 l 0.26922,1.28025 0.26922,1.28025 0.58475,2.44132 0.58473,2.44132 z m -1.69301,-11.59281 0.5182,-0.27732 1.04353,0.11762 1.04353,0.11762 -0.14814,-0.63114 -0.14815,-0.63116 -0.48682,-0.80928 -0.48682,-0.80927 -0.9313,-1.07604 -0.9313,-1.07603 -0.8816,-1.53282 -0.8816,-1.53282 -0.10579,0.1058 -0.1058,0.1058 0.55235,1.26923 0.55234,1.26924 0.17629,2.16328 0.17629,2.16328 0.2633,0.67068 0.26329,0.67067 z m -0.93429,11.53779 -0.18027,-0.0173 -0.62888,-0.76383 -0.62886,-0.76383 -0.63466,-1.25711 -0.63465,-1.2571 -0.46972,-1.19169 -0.46972,-1.19167 -1.6127,-2.83924 -1.61272,-2.83925 -0.30985,-1.02732 -0.30985,-1.02732 0.13614,-0.35478 0.13613,-0.35477 h 0.31734 0.31733 l 0.7386,0.89604 0.73859,0.89604 v -0.50165 -0.50167 l -0.74958,-1.41593 -0.74957,-1.41593 -2.53575,-3.84584 -2.53576,-3.84583 -0.73838,-0.60092 -0.73837,-0.60091 -0.40102,-0.39861 -0.40101,-0.39861 -2.34072,-1.88486 -2.34073,-1.88485 -0.74595,-0.57906 -0.74596,-0.57907 -1.642818,-1.58422 -1.642819,-1.58421 -1.0226,-1.44219 -1.0226,-1.44219 -1.238555,-2.32433 -1.238552,-2.32432 -0.344288,-1.32181 -0.344289,-1.32182 -0.160026,-1.88225 -0.160025,-1.88226 0.26445,-0.68311 0.264451,-0.68311 -0.758106,-2.55013 -0.758105,-2.55012 -1.390845,-2.58016 -1.390842,-2.58016 -0.858069,-1.27415 -0.858065,-1.27416 v -0.17593 -0.17595 l 0.352408,0.13524 0.352406,0.13523 1.568003,2.32096 1.568005,2.32096 1.324828,1.92076 1.324831,1.92076 0.901053,2.16212 0.90105,2.16212 2.365758,2.52715 2.365756,2.52716 1.187665,1.26741 1.18766,1.26742 0.23905,0.62875 0.23905,0.62875 -0.0967,0.0967 -0.0967,0.0967 -0.72588,-0.61079 -0.72588,-0.6108 h -0.18708 -0.18708 l -2.422237,-1.96214 -2.422237,-1.96215 -0.461397,-0.38141 -0.461395,-0.38141 0.188477,0.48073 0.188481,0.48073 0.464899,1.32201 0.464899,1.322 0.742181,1.44219 0.742182,1.44219 1.315225,1.99917 1.315232,1.99918 4.98757,4.9714 4.98756,4.97141 2.32014,3.55421 2.32014,3.55422 0.94032,1.854 0.94031,1.85398 0.37909,1.8527 0.3791,1.85269 7.2e-4,0.55095 7.2e-4,0.55096 0.84655,1.40391 0.84654,1.4039 0.32654,0.78154 0.32655,0.78152 0.28608,1.78059 0.2861,1.78058 0.46311,1.38306 0.46313,1.38304 v 0.11923 0.11923 l -0.18027,-0.0173 z m 13.43427,0.0173 h -0.2743 v -0.38627 -0.38628 l 0.72576,-1.5207 0.72577,-1.52071 1.47848,-1.33794 1.47848,-1.33795 h 0.1769 0.1769 l -0.11591,-0.44322 -0.1159,-0.44322 2.21855,-2.98198 2.21855,-2.98197 0.63869,-0.84129 0.63868,-0.84127 0.81296,-1.20182 0.81296,-1.20183 1.93651,-2.10156 1.93652,-2.10155 3.14536,-2.87187 3.14535,-2.87188 1.22582,-0.96895 1.22581,-0.96895 0.83151,-1.50892 0.8315,-1.50894 0.84212,-2.16328 0.84211,-2.16328 0.61421,-3.00456 0.61419,-3.00456 0.62856,-3.32856 0.62856,-3.32857 -0.10989,-0.10988 -0.10989,-0.10988 -0.85999,1.39534 -0.86,1.39534 -0.22465,0.36056 -0.22466,0.36054 -0.16601,-0.41102 -0.16601,-0.41102 0.63577,-1.39171 0.63577,-1.39172 1.36401,-2.04311 1.364,-2.04309 2.12503,-2.46216 2.12504,-2.46215 0.7646,-1.26991 0.76461,-1.26989 0.44924,-1.73276 0.44925,-1.73274 0.24377,0.15066 0.24377,0.15066 -0.14207,1.69463 -0.14207,1.69465 -0.53543,1.51663 -0.53541,1.51663 -1.31019,1.74161 -1.31018,1.74161 -0.95127,4.08691 -0.95126,4.08693 -0.68435,2.16328 -0.68436,2.16328 -0.86943,3.24492 -0.86942,3.24493 -0.61852,1.74377 -0.61852,1.74376 -1.03942,1.82395 -1.03943,1.82396 -0.84653,1.03307 -0.84653,1.03308 -1.14615,0.75918 -1.14616,0.75919 -1.92389,1.78094 -1.9239,1.78093 -2.40365,2.0717 -2.40364,2.0717 -2.73642,2.92581 -2.73641,2.92581 -0.55908,0.84128 -0.55908,0.84127 -0.91089,1.19263 -0.9109,1.19264 0.36056,-0.20829 0.36054,-0.20828 1.56238,-1.09143 1.56237,-1.09143 1.58895,-1.27502 1.58895,-1.27502 h 0.39406 0.39405 v 0.22886 0.22885 l -1.09553,1.56715 -1.09551,1.56716 -1.24804,1.04418 -1.24803,1.04419 -2.16328,1.42425 -2.16328,1.42426 -1.8289,1.86486 -1.82888,1.86485 z m -0.50314,-3.64937 -0.25164,0.0839 -0.18039,-0.44063 -0.1804,-0.44063 0.0135,-7.21094 0.0135,-7.21094 0.50476,-2.2127 0.50477,-2.21268 0.60612,-1.32396 0.60613,-1.32395 1.08605,-1.67887 1.08605,-1.67886 1.10982,-1.39452 1.10983,-1.39452 1.87417,-1.68256 1.87418,-1.68255 2.28327,-2.40365 2.28325,-2.40365 0.42848,-0.84128 0.42847,-0.84127 1.06701,-1.50023 1.067,-1.50024 0.22,-0.13597 0.22,-0.13597 -0.22467,0.59093 -0.22467,0.59092 -0.86414,1.76638 -0.86414,1.76636 0.86692,-0.96145 0.86693,-0.96147 1.28754,-1.92291 1.28755,-1.92292 0.7066,-2.0516 0.7066,-2.0516 0.50004,-0.95296 0.50003,-0.95296 0.49105,-0.72109 0.49103,-0.7211 0.002,0.43258 0.002,0.43257 -0.38176,0.73823 -0.38175,0.73824 -0.81565,2.55485 -0.81565,2.55484 -0.005,0.67364 -0.005,0.67365 -0.3772,1.6584 -0.37719,1.65842 -0.96781,1.49737 -0.96781,1.49739 -2.70448,2.7806 -2.70448,2.78059 -1.03491,1.56237 -1.03491,1.56238 -1.36462,1.44219 -1.3646,1.44219 -0.70185,1.06413 -0.70184,1.06414 -0.0708,-0.36712 -0.0708,-0.36712 0.50782,-1.29793 0.50783,-1.29793 0.36335,-0.56168 0.36335,-0.56167 -0.10295,-0.10295 -0.10296,-0.10295 -1.89925,1.46278 -1.89928,1.46279 -0.79087,1.26293 -0.79088,1.26294 -0.46805,2.50584 -0.46806,2.50583 -0.47973,2.28347 -0.47974,2.28346 -0.13464,1.80273 -0.13465,1.80274 0.34196,-0.89919 0.34195,-0.89918 0.43192,-0.66318 0.43192,-0.66318 1.18977,-1.56238 1.18978,-1.56237 0.18972,-0.0733 0.18973,-0.0733 0.1549,0.48806 0.1549,0.48807 -0.99596,2.10909 -0.99597,2.10909 -0.67305,2.16328 -0.67305,2.16328 -0.73755,2.03931 -0.73757,2.0393 -0.25164,0.0839 z m -18.39943,-0.91756 h -0.12018 v -0.12018 -0.12019 h 0.12018 0.12018 v 0.12019 0.12018 z m 20.44857,-0.49531 -0.37811,0.31381 v -0.19914 -0.19913 l 0.86257,-2.64278 0.86258,-2.64279 0.84734,-1.69435 0.84735,-1.69436 1.66067,-2.33598 1.66067,-2.33598 1.43253,-1.63003 1.43253,-1.63004 0.005,-0.16544 0.005,-0.16544 -0.6782,-0.74254 -0.6782,-0.74253 -1.31038,1.3887 -1.31037,1.3887 -0.80285,0.96147 -0.80286,0.96145 0.13369,-0.90985 0.13368,-0.90986 0.61622,-1.34601 0.61622,-1.346 1.73685,-2.04579 1.73685,-2.04578 1.91436,-1.70747 1.91435,-1.70748 0.7345,-0.73524 0.7345,-0.73524 1.94586,-2.75005 1.94586,-2.75004 0.96895,-1.68256 0.96896,-1.68255 0.88574,-1.76729 0.88574,-1.76729 0.4414,-1.47763 0.44139,-1.47764 0.25198,-1.20183 0.25199,-1.20182 0.27537,-2.08831 0.27536,-2.08832 0.32314,-0.43552 0.32315,-0.43551 0.378,0.3719 0.378,0.3719 0.37648,1.79138 0.37648,1.79139 -0.15792,1.56237 -0.15793,1.56237 -0.56842,2.32501 -0.56842,2.325 -0.59396,1.16028 -0.59395,1.16029 -0.96001,1.322 -0.96,1.32201 -2.36542,3.48529 -2.36541,3.48529 -1.32201,1.32416 -1.32201,1.32416 -1.92291,1.6184 -1.92292,1.61838 -0.47572,0.33942 -0.47572,0.33943 0.5959,0.49577 0.5959,0.49578 0.1472,0.008 0.14719,0.008 2.28859,-2.34356 2.2886,-2.34355 1.437,-1.65787 1.437,-1.65786 2.01223,-3.21088 2.01223,-3.21088 1.28022,-1.38075 1.28023,-1.38074 -0.15325,0.7211 -0.15325,0.72109 -1.91578,3.96603 -1.91578,3.96601 -2.01102,2.65168 -2.01101,2.65167 -4.54035,4.43909 -4.54035,4.43909 -0.9853,1.44219 -0.98529,1.44219 -1.34213,1.67221 -1.34213,1.6722 -0.63728,1.93327 -0.63728,1.93326 -0.42996,0.85735 -0.42996,0.85736 -0.37812,0.31381 z m -20.63591,-0.0785 -0.0615,0.0615 -0.95567,-1.4865 -0.95567,-1.4865 -2.14403,-2.88438 -2.14403,-2.88437 -7.87313,-7.81186 -7.873131,-7.81186 -1.485974,-2.03643 -1.485973,-2.03643 -0.97116,-1.92959 -0.971164,-1.92959 -0.575204,-1.68255 -0.575202,-1.68255 -0.472137,-2.7642 -0.472134,-2.76419 -0.365275,-1.32201 -0.365276,-1.32201 -0.362364,-3.60547 -0.362364,-3.60547 -0.523116,-1.68255 -0.523113,-1.68255 -1.285473,-1.88971 -1.285476,-1.8897 -1.550394,-2.03192 -1.550396,-2.03192 v -0.21543 -0.21543 l -2.163283,-2.30195 -2.163283,-2.30195 v -0.23112 -0.23112 h 0.167203 0.167205 l 5.017311,4.98757 5.017316,4.98757 0.830909,1.12243 0.830913,1.12245 0.482724,1.40139 0.482722,1.40139 0.352245,2.50557 0.352245,2.50559 v 1.83096 1.83098 l 0.369909,2.87439 0.369907,2.8744 0.473755,1.75402 0.473751,1.75401 1.061494,1.6111 1.061497,1.61108 1.880588,1.62602 1.88059,1.62602 3.365107,2.29198 3.365111,2.29198 0.80169,0.76912 0.8017,0.7691 0.34004,0.64908 0.34003,0.64906 v 0.50887 0.50885 l 0.50543,-0.16041 0.50542,-0.16042 h 0.87303 0.87303 l 0.67245,0.80523 0.67247,0.80522 0.71328,2.22624 0.71328,2.22625 v 0.23195 0.23195 l 1.66481,4.03165 1.66481,4.03165 1.21676,2.74699 1.21675,2.74697 z m -6.7483,-12.00015 0.0678,-0.0678 -0.5,-1.67125 -0.50001,-1.67125 -0.58268,-1.15303 -0.58269,-1.15303 -0.33199,-0.12739 -0.33199,-0.12741 -0.5596,0.28891 -0.55961,0.28892 -0.54081,0.49259 -0.54082,0.49259 v 0.17572 0.17571 l 1.62245,1.2064 1.62247,1.2064 0.82485,0.85585 0.82484,0.85586 z m -7.11368,-6.89573 0.1322,1.5e-4 0.28844,-0.28844 0.28844,-0.28844 v -0.92235 -0.92236 l -1.04797,-1.01257 -1.04797,-1.01259 -1.896499,-1.06378 -1.896501,-1.06379 -1.442189,-1.07638 -1.442188,-1.07639 -1.184856,-1.10476 -1.184855,-1.10475 0.440144,0.7211 0.440147,0.72109 1.50438,1.92291 1.504379,1.92293 1.764162,1.71218 1.764159,1.71218 1.442189,1.11195 1.442188,1.11195 z m 22.17477,-4.63114 -0.28731,0.0957 0.0784,-3.44085 0.0784,-3.44085 0.18301,-1.38768 0.18302,-1.38768 -0.45484,0.16926 -0.45484,0.16925 -2.46374,2.13671 -2.46374,2.1367 9e-4,-0.67791 9.1e-4,-0.67792 0.53963,-0.64254 0.53963,-0.64254 1.88518,-1.58083 1.88519,-1.58084 h 0.70468 0.70469 l 0.2473,-0.65045 0.24731,-0.65046 0.32267,-2.4568 0.32266,-2.4568 0.14081,-0.22784 0.14081,-0.22782 -1.13737,0.11859 -1.13736,0.11859 -0.84128,0.7579 -0.84128,0.75791 -0.60091,0.50805 -0.60091,0.50804 -0.54082,0.16401 -0.54083,0.16401 v -0.30351 -0.3035 l 0.64588,-0.67415 0.64589,-0.67416 h 0.29714 0.29713 l 0.75007,-0.63114 0.75008,-0.63115 0.45964,-0.90099 0.45964,-0.90099 0.71525,-0.60184 0.71524,-0.60184 0.16293,-0.86848 0.16293,-0.86849 0.21401,0.13228 0.214,0.13226 v 0.7069 0.70692 h 0.12992 0.12992 l 0.67828,-0.50149 0.67829,-0.50147 1.95095,-0.0211 1.95094,-0.0211 0.51693,0.46246 0.51693,0.46246 0.44958,1.04148 0.44958,1.04147 v 0.23681 0.2368 l -0.78119,-0.53576 -0.78118,-0.53577 -0.64505,-0.59193 -0.64505,-0.59192 -1.11621,0.16739 -1.1162,0.16738 -0.24725,0.70926 -0.24726,0.70925 -0.61601,0.32276 -0.61601,0.32277 -0.28675,1.12931 -0.28674,1.1293 0.1202,1.67996 0.1202,1.67995 0.38741,-0.15921 0.38742,-0.15921 0.75572,-0.21857 0.75574,-0.21857 0.88305,-1.07765 0.88305,-1.07764 0.447,-0.23923 0.447,-0.23923 0.35428,0.13595 0.35427,0.13595 0.11662,0.44598 0.11663,0.44599 -0.54919,1.63193 -0.5492,1.63194 -0.66204,0.56947 -0.66206,0.56947 -1.34543,-0.0487 -1.34544,-0.0487 -0.26594,0.0287 -0.26593,0.0287 -0.13235,2.46374 -0.13234,2.46374 -0.54304,1.44218 -0.54303,1.44219 -0.53325,0.72882 -0.53326,0.72882 -0.0878,0.45308 -0.0878,0.45309 -0.28731,0.0957 z m 5.27488,-0.98926 -1.26191,0.56682 0.008,-0.4176 0.008,-0.41761 0.29195,-0.52085 0.29193,-0.52085 0.8815,-0.69901 0.8815,-0.69901 0.64942,-0.77178 0.6494,-0.77178 0.75256,-0.38525 0.75255,-0.38525 0.8107,-0.70633 0.81069,-0.70632 0.24773,0.24774 0.24774,0.24773 -0.34587,0.90873 -0.34587,0.90875 -0.82985,0.55923 -0.82985,0.55925 -0.60057,0.93418 -0.60057,0.93419 -0.60414,0.2841 -0.60414,0.2841 -1.26193,0.56682 z m 7.86936,-10.40594 -0.17735,0.19813 -0.0246,-2.00086 -0.0246,-2.00088 -0.0781,-3.3651 -0.0781,-3.36511 -0.3377,-1.56237 -0.3377,-1.56237 0.0105,-5.76876 0.0105,-5.76875 0.40907,-2.39903 0.40908,-2.39902 0.13523,-0.60554 0.13523,-0.60554 -1.10414,2.16329 -1.10414,2.16328 -0.35944,2.16328 -0.35943,2.16329 -0.19029,3.60547 -0.19029,3.60547 -0.29344,-1.58206 -0.29345,-1.58206 v -2.53768 -2.53767 l 0.376,-1.98213 0.37601,-1.98212 0.73326,-1.83017 0.73325,-1.83019 1.1482,-3.48528 1.14819,-3.48529 1.07182,-2.40365 1.07184,-2.40365 1.44639,-2.88438 1.44639,-2.88437 0.37455,-1.32201 0.37454,-1.32201 0.74858,-3.53806 0.74857,-3.53808 1.29787,-3.56507 1.29788,-3.56507 0.49501,-2.42903 0.49501,-2.429021 -0.003,-2.365888 -0.003,-2.365892 -0.47449,-3.00456 -0.47449,-3.004559 -0.003,-2.283466 -0.003,-2.283465 0.25059,-2.764196 0.2506,-2.764195 0.60685,-3.966019 0.60687,-3.966019 0.94569,-4.566931 0.94569,-4.566931 0.21847,-0.721094 0.21848,-0.721095 0.0207,0.316508 0.0207,0.316507 -0.47232,3.048599 -0.47233,3.0486 -0.39755,3.845837 -0.39755,3.845836 -0.004,4.807296 -0.004,4.807297 0.38844,2.478278 0.38843,2.478276 0.74992,2.088656 0.74992,2.088651 0.58204,1.922919 0.58203,1.922918 0.46338,2.561729 0.46337,2.561724 0.28478,3.68776 0.28476,3.68776 -0.15337,4.13666 -0.15338,4.13667 -0.37097,2.83391 -0.37096,2.83391 -0.46339,1.81707 -0.46339,1.81707 -0.98921,2.87005 -0.98921,2.87004 -1.0426,2.52383 -1.0426,2.52383 -1.18526,2.64401 -1.18526,2.64402 -2.4141,5.04766 -2.4141,5.04766 -0.50988,2.16329 -0.50987,2.16328 -0.4617,1.68255 -0.4617,1.68255 -0.0334,1.56237 -0.0334,1.56238 -0.36645,-0.84129 -0.36647,-0.84127 0.16537,-1.8989 0.16538,-1.8989 0.22742,-0.59817 0.22743,-0.59818 -0.095,-0.0949 -0.0949,-0.0949 -0.60065,1.27 -0.60065,1.27001 -0.2726,1.27374 -0.2726,1.27375 v 2.83668 2.83668 l -0.27317,0.81706 -0.27316,0.81704 -0.17735,0.19814 z m 3.65187,-21.71079 0.49057,-1.08164 1.27065,-3.38941 1.27066,-3.3894 0.85518,-2.7399 0.85519,-2.73989 1.45221,-5.02823 1.45221,-5.02824 -0.0721,-0.0721 -0.0721,-0.0721 -2.05986,3.77834 -2.05986,3.77835 -0.72333,1.68256 -0.72334,1.68255 -0.26468,0.84127 -0.26468,0.84128 -0.47036,2.2995 -0.47036,2.2995 -0.49524,3.52748 -0.49524,3.52748 0.017,0.18214 0.017,0.18214 0.49058,-1.08165 z m -3.52909,-9.61459 h 0.12018 v -0.12018 -0.12018 h -0.12018 -0.12018 v 0.12018 0.12018 z m -21.55762,30.41106 -0.12699,0.12699 -1.07742,-1.26777 -1.07742,-1.26778 -0.75667,-1.44219 -0.75666,-1.44218 -0.54367,-1.53915 -0.54368,-1.53914 -0.91956,-0.86451 -0.91955,-0.8645 -0.81766,-1.2581 -0.81767,-1.25811 -1.27317,-1.38591 -1.27317,-1.38591 -1.19599,-1.66232 -1.19599,-1.66231 -1.56934,-3.13734 -1.569326,-3.13736 -1.614625,-0.55392 -1.614624,-0.55392 -2.306064,-0.61378 -2.306064,-0.61378 -0.09666,0.0966 -0.09665,0.0967 0.972468,2.5056 0.972465,2.50561 0.553829,0.84443 0.553827,0.84443 0.165633,0.52187 0.165633,0.52186 1.552507,2.08239 1.552504,2.08239 0.153251,0.63752 0.153252,0.63751 0.59393,1.20183 0.593927,1.20182 0.336195,0.38284 0.336194,0.38285 0.598038,1.52599 0.59803,1.526 0.1801,0.13426 0.18011,0.13426 0.84261,1.08164 0.84262,1.08165 0.90003,1.33959 0.90003,1.3396 v 0.17687 0.17686 l -0.20916,-0.12926 -0.20915,-0.12927 -1.50875,-2.22847 -1.50874,-2.22848 -0.70152,-0.84128 -0.70151,-0.84128 -1.502749,-1.92291 -1.502748,-1.92292 -0.698702,-1.29082 -0.698702,-1.29082 -0.780537,-0.59534 -0.780533,-0.59534 -0.968647,-1.53374 -0.968646,-1.53375 -0.614774,-0.40281 -0.614776,-0.40282 -1.083495,-1.51839 -1.083497,-1.51838 -0.885273,-1.61633 -0.885273,-1.61633 -7.932039,-5.72052 -7.932037,-5.7205 -1.96118,-1.80332 -1.961179,-1.8033 -1.307028,-1.74337 -1.307029,-1.74337 -1.104286,-1.92292 -1.104286,-1.92291 -1.061204,-2.64402 -1.061205,-2.64401 -0.639635,-2.1769 -0.639637,-2.17691 -0.476605,-2.45864 -0.476607,-2.45864 0.01252,-0.41212 0.01253,-0.41211 0.538972,1.44937 0.53897,1.44939 1.02896,1.91572 1.028959,1.91574 1.326583,1.73899 1.326586,1.73899 1.935869,1.82112 1.935867,1.82113 2.54831,1.68492 2.548309,1.68493 4.566932,2.25754 4.566931,2.25754 1.742645,0.7192 1.742644,0.71921 v -0.59429 -0.59429 l -0.609418,-2.8202 -0.609419,-2.8202 -1.570676,-5.5284 -1.570677,-5.52838 -0.932835,-3.78013 -0.932834,-3.78012 -0.605203,-3.671183 -0.605199,-3.671188 -0.247067,-2.764196 -0.247068,-2.764195 0.0041,-4.687113 0.0041,-4.687114 0.342253,-3.485289 0.342253,-3.485289 0.380089,-2.52383 0.380088,-2.523831 0.587836,-3.030848 0.587836,-3.030847 0.409217,-2.978274 0.409219,-2.978271 0.01832,-6.00912 0.01831,-6.009119 -0.31021,-2.523831 -0.31021,-2.52383 -0.482897,-2.764195 -0.4829,-2.764196 -0.60771,-2.403647 -0.607707,-2.403648 -0.85129,-2.644013 -0.851288,-2.644012 -0.951061,-2.403649 -0.951064,-2.403647 -1.29659,-2.644013 -1.29659,-2.644013 0.363242,0.479946 0.363239,0.479947 1.288404,2.524613 1.288405,2.524614 1.1011,2.58444 1.101099,2.584438 1.537697,4.265958 1.537695,4.265957 1.47465,4.944896 1.47465,4.944895 0.35713,1.866554 0.357131,1.866556 v 3.126314 3.126317 l -0.877863,7.608866 -0.87786,7.608862 -0.02351,6.00912 -0.02351,6.009119 0.333156,2.884378 0.333157,2.884377 1.15391,4.566931 1.153912,4.566932 0.955601,3.605472 0.955602,3.605469 0.883778,2.51532 0.883776,2.51533 0.492192,0.96997 0.492193,0.96996 0.656662,0.96146 0.656664,0.96146 0.993873,1.83509 0.993875,1.83509 0.368508,1.04929 0.36851,1.04928 0.700791,1.35023 0.700793,1.35022 1.513743,2.28183 1.513745,2.28183 0.771836,1.17524 0.771835,1.17525 1.332873,2.64401 1.33287,2.64401 0.53931,0.91523 0.5393,0.91521 0.65663,1.0077 0.65663,1.0077 0.005,0.19386 0.005,0.19386 -0.73984,-0.43422 -0.73985,-0.43423 -0.81729,-1.08164 -0.81729,-1.08164 -0.44952,-0.60091 -0.44952,-0.60092 -1.127872,-1.7345 -1.127873,-1.73452 -0.230575,-0.1425 -0.230578,-0.1425 v 0.0927 0.0927 l 0.725184,2.58261 0.725185,2.58262 0.867549,2.687 0.86754,2.68701 2.65664,5.16632 2.65664,5.16631 0.16575,0.84281 0.16575,0.8428 0.18021,0.72109 0.18021,0.7211 -0.62931,-0.82789 -0.62931,-0.82788 v -0.40162 -0.40161 l -0.50813,-0.64598 -0.50813,-0.64599 -0.11153,0.11153 -0.11154,0.11153 1.31003,2.75599 1.31001,2.756 1.10651,1.71047 1.10651,1.71049 1.05804,1.02314 1.05805,1.02313 0.36612,1.322 0.3661,1.32201 0.15797,1.13613 0.15797,1.13613 0.19986,0.12352 0.19985,0.12351 0.15744,0.6273 0.15744,0.62729 0.52587,0.75707 0.52586,0.75708 0.46597,0.53987 0.46597,0.53987 -0.12699,0.12699 z M 98.213404,138.62651 h 0.05693 l -1.438113,-2.92209 -1.438112,-2.9221 -1.173555,-3.62784 -1.173554,-3.62785 -0.662253,-2.46834 -0.662256,-2.46832 -0.05808,0.0647 -0.05808,0.0647 0.557332,6.48985 0.557329,6.48985 0.07704,0.83493 0.07704,0.83494 2.640698,1.6288 2.6407,1.62881 z m 20.654856,23.54838 -0.20657,0.007 0.11847,-0.78119 0.11848,-0.78118 0.31621,-1.37362 0.31621,-1.37362 -0.66928,-3.79423 -0.66929,-3.79422 -0.11544,-0.49991 -0.11544,-0.49991 -2.91522,-0.51506 -2.91522,-0.51507 -0.11783,0.11783 -0.11782,0.11782 9.1e-4,1.85861 9.1e-4,1.85861 0.55821,2.28347 0.55823,2.28346 0.42872,0.85736 0.42871,0.85736 0.36582,0.3036 0.36582,0.3036 0.26882,0.81452 0.26881,0.81452 -0.2377,0.42477 -0.23772,0.42477 -0.16698,-0.6653 -0.16698,-0.66531 -0.93736,-1.13403 -0.93735,-1.13403 -1.794,-3.60547 -1.79401,-3.60548 -0.23998,-1.55275 -0.23998,-1.55274 0.13498,-0.8509 0.13497,-0.85091 -1.20253,-1.58629 -1.20253,-1.58631 -1.48244,-2.25764 -1.48244,-2.25763 -0.9116,-1.92482 -0.9116,-1.92482 -0.18091,-0.59 -0.18092,-0.58999 2.37537,2.39273 2.37536,2.39274 1.27814,0.68483 1.27814,0.68484 0.0966,-0.0966 0.0966,-0.0966 -0.34481,-3.71294 -0.34481,-3.71295 -0.24825,-4.56694 -0.24823,-4.56693 -4.9e-4,-7.09486 -4.8e-4,-7.09487 0.24484,-3.84173 0.24483,-3.84173 0.37626,-3.365111 0.37625,-3.365107 0.56952,-3.244925 0.56952,-3.244925 0.4899,-2.0431 0.4899,-2.043102 0.28377,-3.190048 0.28377,-3.190047 -0.28027,-3.447663 -0.28027,-3.447661 -0.48416,-2.832057 -0.48416,-2.832055 -0.62275,-2.548474 -0.62273,-2.548474 -1.07567,-3.485289 -1.07567,-3.485289 -1.81163,-4.566931 -1.81165,-4.566932 -2.00467,-4.206384 -2.004663,-4.206383 -1.086365,-2.043101 -1.086365,-2.043101 1.215994,1.322007 1.215995,1.322006 1.853864,2.764195 1.85387,2.764195 1.58836,3.124743 1.58835,3.124742 0.95465,2.403647 0.95465,2.403649 0.85128,2.644012 0.8513,2.644013 0.60787,2.403648 0.60787,2.403648 0.59778,3.244924 0.59779,3.244925 0.41994,3.48529 0.41993,3.485289 0.0156,7.451309 0.0156,7.451308 -0.0645,7.742278 -0.0645,7.742281 0.25899,3.43468 0.259,3.43469 0.3317,2.0431 0.3317,2.0431 0.63082,2.73709 0.63083,2.7371 0.94616,2.34677 0.94616,2.34675 v 0.28584 0.28583 l 0.75504,2.2018 0.75504,2.2018 0.44751,0.89321 0.44751,0.89321 0.81957,3.07281 0.81956,3.07281 0.63928,1.77724 0.63927,1.77724 -0.15408,0.61387 -0.15407,0.61387 -0.22017,-0.348 -0.22017,-0.34802 -0.004,-0.50518 -0.004,-0.50519 -1.0916,-1.65809 -1.09159,-1.65811 -0.83709,-2.64401 -0.83708,-2.64401 -0.24918,-0.36055 -0.24919,-0.36054 0.16242,0.84127 0.16242,0.84128 0.90664,2.88438 0.90663,2.88437 0.1584,1.08164 0.1584,1.08165 0.44003,1.08163 0.44004,1.08165 0.41905,1.27501 0.41904,1.27502 -0.0346,1.90445 -0.0346,1.90445 -0.19912,0.53828 -0.19912,0.53829 -0.11931,-2.28091 -0.11931,-2.28091 -0.39621,-0.71575 -0.39623,-0.71574 0.11824,1.20183 0.11825,1.20181 0.26614,4.91653 0.26616,4.91651 -0.80572,2.46733 -0.80571,2.46734 -0.20658,0.007 z m -4.9868,-21.38512 h 1.89738 l -0.59335,-1.86282 -0.59336,-1.86283 -1.16511,-6.97058 -1.16511,-6.97058 -0.10291,-0.7211 -0.1029,-0.72109 -0.036,9.5545 -0.036,9.5545 z m 7.92385,19.61057 -0.20665,0.12772 v -0.2272 -0.22721 l 0.58915,-1.76999 0.58915,-1.76999 0.30181,-2.64402 0.30181,-2.64401 0.0105,-6.61003 0.0105,-6.61003 -0.43137,-2.28347 -0.43137,-2.28346 -0.69778,-2.53465 -0.69778,-2.53463 -0.5143,-1.19102 -0.5143,-1.19102 -0.80384,-2.16328 -0.80383,-2.16328 -0.96907,-3.12474 -0.96906,-3.12474 -0.38612,-3.12475 -0.38614,-3.12474 0.17813,-2.0431 0.17812,-2.0431 -0.0491,-0.48073 -0.0491,-0.48073 -0.3888,-1.50375 -0.38881,-1.50375 0.25031,-0.53935 0.25033,-0.53935 0.26648,0.67665 0.26648,0.67665 v 0.49047 0.49048 l 0.59135,0.70278 0.59135,0.70277 0.16711,0.89078 0.16711,0.89079 -0.28399,1.69014 -0.284,1.69016 0.39596,1.91883 0.39596,1.91883 0.66602,1.80274 0.66603,1.80274 1.22984,2.62188 1.22984,2.62189 0.10208,-0.10208 0.10207,-0.10207 -0.35098,-2.76018 -0.35099,-2.76018 -0.84711,-6.00911 -0.84712,-6.00912 -1.06181,-6.249487 -1.0618,-6.249485 -0.7151,-3.598989 -0.71509,-3.598988 0.0515,-0.05155 0.0515,-0.05155 1.74261,4.25145 1.74261,4.251448 0.85567,2.403647 0.85567,2.403648 0.85223,3.124736 0.85223,3.12474 0.18875,1.25774 0.18876,1.25774 0.51774,1.74682 0.51775,1.74682 0.36239,0.85935 0.36238,0.85935 0.53107,0.66603 0.53107,0.66602 1.43438,-0.85784 1.43438,-0.85783 1.59758,-1.51524 1.59758,-1.51524 0.1691,-1.57898 0.1691,-1.57897 -0.44468,-6.466816 -0.44467,-6.46682 V 81.059126 70.242711 l 0.31169,-2.523831 0.31169,-2.52383 0.94327,-4.689397 0.94327,-4.689397 0.95412,-3.362824 0.95411,-3.362823 1.11305,-3.244925 1.11305,-3.244925 1.20875,-2.884377 1.20876,-2.884378 1.56363,-3.079409 1.56364,-3.079407 0.093,0.09297 0.093,0.09297 -0.81295,2.024982 -0.81293,2.02498 -1.24215,3.605472 -1.24214,3.605472 -1.30024,4.446748 -1.30023,4.446749 -0.8343,3.48529 -0.8343,3.485289 -0.72076,3.725655 -0.72077,3.725653 -0.54385,4.086202 -0.54386,4.086202 -0.0122,6.00912 -0.0122,6.009119 0.53694,2.645867 0.53694,2.645868 1.23496,3.964163 1.23498,3.964166 0.57633,2.043095 0.57633,2.04309 0.48062,2.66184 0.48062,2.66184 0.18748,2.98674 0.18748,2.98673 -0.18741,2.52384 -0.1874,2.52382 -0.74992,3.00456 -0.74991,3.00456 -0.93008,2.35091 -0.93009,2.35092 -0.87286,1.49492 -0.87287,1.49493 -0.83794,1.0276 -0.83793,1.02759 -0.21148,0.77515 -0.21147,0.77514 -0.50287,3.12474 -0.50286,3.12475 0.12729,1.08163 0.12726,1.08165 -0.38518,-0.84129 -0.38518,-0.84127 -0.0282,-2.67866 -0.0283,-2.67865 -0.15072,0.0907 -0.1507,0.0907 -0.26358,1.0467 -0.26356,1.04672 0.23575,2.07467 0.23573,2.07468 0.35983,1.71052 0.35982,1.71052 0.59285,2.33881 0.59286,2.33881 0.96607,3.21155 0.96606,3.21156 -0.0888,0.0887 -0.0888,0.0888 -0.76902,-1.03265 -0.76902,-1.03265 -1.40774,-2.88438 -1.40774,-2.88438 -0.62604,-1.92291 -0.62604,-1.92292 -0.57448,-2.52384 -0.57447,-2.52382 -0.0168,3.19496 -0.0168,3.19497 -0.37811,1.83057 -0.37811,1.83057 -0.72329,1.82486 -0.72327,1.82486 -1.21579,2.10984 -1.21578,2.10984 -0.20665,0.12773 z m 4.72083,-18.40875 h 0.12019 v -0.12018 -0.12018 h -0.12019 -0.12019 v 0.12018 0.12018 z m 1.32953,-9.13385 0.7589,-0.84128 1.20144,-1.68256 1.20143,-1.68255 1.05856,-2.09679 1.05857,-2.09679 0.57532,-1.98941 0.57533,-1.98941 0.37491,-2.28346 0.37491,-2.28348 0.15668,-1.44219 0.15669,-1.44218 -1.40657,2.03384 -1.40658,2.03384 -1.24046,1.34022 -1.24047,1.34023 -1.16319,0.5448 -1.16318,0.5448 0.0853,3.69277 0.0853,3.69277 -0.27938,2.12314 -0.27939,2.12313 -0.12152,0.60092 -0.12155,0.60091 z m 23.98134,24.87775 -0.25284,0.24037 0.0901,-0.24561 0.0901,-0.24562 1.23773,-2.51858 1.23772,-2.51858 0.75962,-2.64402 0.75963,-2.64401 0.62838,-1.08164 0.62839,-1.08164 0.68899,-0.96147 0.68898,-0.96145 1.19341,-1.87224 1.19342,-1.87224 0.74815,-1.49287 0.74816,-1.49286 0.80324,-1.32201 0.80325,-1.32201 0.62726,-2.00267 0.62725,-2.00265 0.33971,-1.60282 0.33971,-1.6028 -0.007,-2.0431 -0.007,-2.04311 -0.55604,1.44219 -0.55606,1.44219 -1.147,2.28347 -1.147,2.28347 -1.96348,3.12474 -1.96349,3.12474 -1.15822,1.99386 -1.15822,1.99386 -0.11106,-0.11106 -0.11106,-0.11106 0.50082,-1.13216 0.50081,-1.13218 v -0.14715 -0.14715 l -1.13236,1.67998 -1.13235,1.67999 -1.99716,3.12474 -1.99716,3.12474 -1.10106,3.36511 -1.10106,3.36511 -0.32982,0.60091 -0.32983,0.60091 0.14746,-0.84127 0.14746,-0.84128 0.59448,-2.0431 0.59447,-2.0431 0.12551,-0.48073 0.12552,-0.48073 -0.24037,0.24036 -0.24037,0.24037 -2.1052,2.82428 -2.1052,2.82429 h -0.11843 -0.11842 l 0.39207,-0.59838 0.39208,-0.59839 1.66661,-2.90901 1.66662,-2.90901 2.27344,-4.48473 2.27344,-4.48474 1.61488,-3.60547 1.61488,-3.60547 1.51101,-3.84781 1.51101,-3.8478 0.99478,-2.88241 0.99478,-2.88241 0.61074,-2.16328 0.61073,-2.16328 0.57679,-2.7642 0.5768,-2.7642 -0.01,-0.60091 -0.01,-0.60091 -1.03496,2.52383 -1.03496,2.52383 -0.60201,1.322 -0.60201,1.32201 -0.85718,2.64402 -0.85718,2.64401 -0.8299,2.88437 -0.82988,2.88438 -0.48859,1.68256 -0.48859,1.68255 -0.87393,2.16328 -0.87391,2.16329 -1.30522,2.66984 -1.30522,2.66983 -0.36638,0.30407 -0.36636,0.30406 v -0.16407 -0.16407 l 1.29403,-3.0502 1.29404,-3.0502 0.97017,-2.88437 0.97017,-2.88438 0.15541,-0.84128 0.15541,-0.84127 0.85087,-3.84583 0.85087,-3.84585 0.6755,-2.28346 0.67548,-2.28347 0.83629,-1.80273 0.8363,-1.80274 0.59364,-1.80273 0.59363,-1.80274 0.88817,-2.7642 0.88818,-2.76419 0.0454,-5.167843 0.0455,-5.167842 -0.42752,-2.283466 -0.42753,-2.283465 -0.94769,-3.966019 -0.94768,-3.96602 -0.41001,-2.283465 -0.41,-2.283466 -0.005,-4.086201 -0.005,-4.086202 0.4169,-2.274067 0.41691,-2.274068 0.70469,-2.103333 0.70468,-2.103337 0.87927,-1.751901 0.87929,-1.751899 0.96596,-1.382097 0.96596,-1.382098 h 0.0631 0.0631 l -1.18151,2.343558 -1.18151,2.343556 -0.83369,2.562087 -0.83368,2.562084 -0.41176,2.933799 -0.41175,2.933799 0.27769,2.436152 0.2777,2.436156 0.36212,1.368199 0.36213,1.3682 1.20308,2.860231 1.20308,2.860232 0.8399,2.918016 0.83989,2.91802 0.72384,3.480667 0.72384,3.480665 0.60561,4.177705 0.60561,4.177706 0.47425,5.067627 0.47427,5.06762 0.16292,3.97513 0.16294,3.97513 0.18845,-0.11647 0.18845,-0.11647 1.4319,-3.66064 1.43191,-3.66065 0.85842,-2.88438 0.85842,-2.88438 0.59464,-2.76418 0.59466,-2.764204 0.39704,-2.884377 0.39705,-2.884378 0.0222,-3.124742 0.0223,-3.124742 -0.89632,-3.845836 -0.89633,-3.845838 -0.47013,-2.25047 -0.47013,-2.250471 -0.36042,-2.74941 -0.36039,-2.749408 9.1e-4,-3.653254 9e-4,-3.653251 0.35448,-2.163283 0.35446,-2.163284 0.47722,-1.70846 0.47721,-1.708462 2.38576,-6.343759 2.38578,-6.34376 3.41908,-8.605631 3.41908,-8.605633 0.0899,0.08986 0.0899,0.08987 -1.0818,3.067444 -1.0818,3.067443 -1.29815,4.126316 -1.29815,4.126314 -1.099,4.003996 -1.099,4.003997 -0.82366,3.687677 -0.82367,3.687676 -0.4988,3.004561 -0.49881,3.004559 -0.25042,2.264674 -0.25043,2.264674 0.007,3.98481 0.007,3.984811 0.45188,2.163283 0.45187,2.163283 1.215,2.884378 1.215,2.884378 0.61577,2.127642 0.61577,2.127641 0.2553,1.598013 0.2553,1.598012 -0.003,2.901466 -0.003,2.901462 -0.25901,1.621362 -0.25902,1.621359 -0.36941,1.606482 -0.36942,1.60648 -1.30704,4.56693 -1.30704,4.56693 -0.74832,1.80274 -0.74831,1.80273 -0.82785,2.40365 -0.82786,2.40365 -1.4005,2.52383 -1.4005,2.52383 -0.38737,0.93072 -0.38737,0.93072 v 0.0909 0.0909 h 0.5059 0.50589 l 2.9193,-1.22426 2.91931,-1.22425 3.80238,-1.93596 3.80239,-1.93596 2.47158,-1.63234 2.47158,-1.63235 1.93586,-1.82113 1.93588,-1.82112 1.32658,-1.73899 1.32658,-1.73899 1.02896,-1.91574 1.02896,-1.91573 0.53897,-1.44938 0.53897,-1.44937 0.0125,0.41211 0.0125,0.41212 -0.4766,2.45864 -0.4766,2.45864 -0.63964,2.17691 -0.63964,2.1769 -1.0612,2.64401 -1.06121,2.64402 -1.10428,1.92291 -1.10429,1.92292 -1.27919,1.70638 -1.2792,1.70639 -1.75391,1.65872 -1.75392,1.65872 -8.52768,6.17499 -8.52769,6.17498 -1.20058,1.86257 -1.20059,1.86257 -0.40975,0.91519 -0.40973,0.91518 -0.78351,1.14259 -0.7835,1.14258 -1.21164,1.12477 -1.21164,1.12476 -0.58222,1.39906 -0.58221,1.39907 -0.23686,0.31065 -0.23685,0.31064 -0.18144,-0.19046 -0.18143,-0.19046 0.34507,-1.80024 0.34507,-1.80023 0.92648,-1.3245 0.92648,-1.32452 1.35142,-3.42691 1.35142,-3.42692 v -0.0855 -0.0855 l -1.14173,0.36511 -1.14174,0.36512 -1.5961,1.27355 -1.59609,1.27355 -0.53451,0.86485 -0.53452,0.86487 -0.12028,-0.12028 -0.12028,-0.12028 0.52938,-1.09355 0.52938,-1.09355 1.1206,-0.98431 1.1206,-0.9843 -0.96146,0.15061 -0.96146,0.15061 -0.61939,0.12192 -0.61938,0.12192 -0.76215,1.6125 -0.76214,1.61251 -0.36092,1.80274 -0.36091,1.80273 -0.008,0.60091 -0.008,0.60092 -0.31931,0.42063 -0.31931,0.42064 h -0.12425 -0.12425 l 0.0982,-1.14173 0.0982,-1.14173 0.25449,-1.80274 0.2545,-1.80273 0.48436,-1.08165 0.48435,-1.08164 0.33514,-0.84127 0.33514,-0.84128 -0.30038,0.45047 -0.30037,0.45048 -0.58597,0.87153 -0.58596,0.87153 -0.79098,1.15824 -0.79099,1.15823 -0.96422,3.06776 -0.96422,3.06776 -1.34197,2.14368 -1.34197,2.14367 -0.25283,0.24036 z m 8.3402,-15.7439 h 0.12018 v -0.12018 -0.12018 h -0.12018 -0.12018 v 0.12018 0.12018 z m 3.87087,-35.63908 0.14523,-0.14522 -0.12625,-0.31548 -0.12624,-0.31548 -0.019,0.4607 -0.019,0.4607 0.14522,-0.14522 z m -19.49458,48.37842 h -0.12019 v -0.12018 -0.12018 h 0.12019 0.12019 v 0.12018 0.12018 z m 7.00959,-96.085826 -0.12125,0.300457 v -0.600912 -0.600912 l 0.12125,0.300456 0.12123,0.300456 z m 0.24141,-1.10167 -0.16024,0.160241 V 57.38319 57.062704 l 0.16024,0.160242 0.16025,0.160244 z m -7.49137,-27.081101 h -0.12018 V 30.34215 30.221968 h 0.12018 0.12018 v 0.120182 0.120183 z m 43.62621,-6.730214 -0.233,0.360547 v -0.240365 -0.240365 l 0.233,-0.360547 0.233,-0.360547 v 0.240365 0.240365 z m 0.40061,-1.041581 -0.16024,0.160243 v -0.320486 -0.320487 l 0.16024,0.160243 0.16024,0.160244 z m 0.2003,-0.640972 h -0.12018 V 21.929383 21.8092 h 0.12018 0.12018 v 0.120183 0.120183 z m 0.24037,-0.721095 h -0.12019 v -0.120183 -0.120182 h 0.12019 0.12018 v 0.120182 0.120183 z M 71.482607,12.194609 h -0.120182 v -0.120183 -0.120182 h 0.120182 0.120182 v 0.120182 0.120183 z"
       id="path3680" /></g></svg>
