<?xml version="1.0" encoding="UTF-8" standalone="no"?>
<!-- Uploaded to: SVG Repo, www.svgrepo.com, Generator: SVG Repo Mixer Tools -->

<svg
   fill="#000000"
   version="1.1"
   id="Capa_1"
   width="800"
   height="800"
   viewBox="0 0 97.75 97.75"
   xml:space="preserve"
   sodipodi:docname="deezer.svg"
   inkscape:version="1.2.2 (b0a8486541, 2022-12-01)"
   xmlns:inkscape="http://www.inkscape.org/namespaces/inkscape"
   xmlns:sodipodi="http://sodipodi.sourceforge.net/DTD/sodipodi-0.dtd"
   xmlns="http://www.w3.org/2000/svg"
   xmlns:svg="http://www.w3.org/2000/svg"><defs
   id="defs25666" /><sodipodi:namedview
   id="namedview25664"
   pagecolor="#ffffff"
   bordercolor="#000000"
   borderopacity="0.25"
   inkscape:showpageshadow="2"
   inkscape:pageopacity="0.0"
   inkscape:pagecheckerboard="true"
   inkscape:deskcolor="#d1d1d1"
   showgrid="false"
   inkscape:zoom="1.28375"
   inkscape:cx="364.94645"
   inkscape:cy="399.61052"
   inkscape:window-width="2515"
   inkscape:window-height="1408"
   inkscape:window-x="45"
   inkscape:window-y="0"
   inkscape:window-maximized="1"
   inkscape:current-layer="Capa_1" />
<g
   id="g25661">
	<path
   d="M 48.875,0 C 21.883,0 0,21.882 0,48.875 0,75.868 21.883,97.75 48.875,97.75 75.867,97.75 97.75,75.868 97.75,48.875 97.75,21.882 75.867,0 48.875,0 Z M 25.676,69.248 H 12.365 v -4.033 h 13.311 z m 0,-5.242 H 12.365 V 59.97 h 13.311 z m 0,-5.244 H 12.365 v -4.035 h 13.311 z m 0,-5.246 H 12.365 v -4.033 h 13.311 z m 0,-5.245 H 12.365 V 44.237 H 25.676 Z M 40.604,69.248 H 27.291 v -4.033 h 13.313 z m 0,-5.242 H 27.291 V 59.97 h 13.313 z m 0,-5.244 H 27.291 V 54.727 H 40.604 Z M 55.531,69.248 H 42.219 v -4.033 h 13.313 z m 0,-5.242 H 42.219 V 59.97 h 13.313 z m 0,-5.244 H 42.219 v -4.035 h 13.313 z m 0,-5.246 H 42.219 v -4.033 h 13.313 z m 0,-5.245 H 42.219 v -4.034 h 13.313 z m 0,-5.245 H 42.219 v -4.034 h 13.313 z m 0,-5.243 H 42.219 V 33.748 H 55.532 Z M 70.457,69.248 H 57.145 v -4.033 h 13.313 z m 0,-5.242 H 57.145 V 59.97 h 13.313 z m 0,-5.244 H 57.145 v -4.035 h 13.313 z m 0,-5.246 H 57.145 v -4.033 h 13.313 z m 0,-5.245 H 57.145 V 44.237 H 70.458 Z M 85.385,69.248 H 72.072 v -4.033 h 13.312 v 4.033 z m 0,-5.242 H 72.072 V 59.97 h 13.312 v 4.036 z m 0,-5.247 H 72.072 v -4.034 h 13.312 v 4.034 z m 0,-5.243 H 72.072 V 49.48 h 13.312 v 4.036 z m 0,-5.245 H 72.072 v -4.037 h 13.312 v 4.037 z m 0,-5.246 H 72.072 v -4.033 h 13.312 v 4.033 z m 0,-5.245 H 72.072 V 33.747 H 85.384 V 37.78 Z M 72.072,32.536 v -4.034 h 13.312 v 4.034 z"
   id="path25659"
   style="fill:#ffffff" />
</g>
</svg>
