<?xml version="1.0" encoding="UTF-8" standalone="no"?>
<!-- Created with Inkscape (http://www.inkscape.org/) -->

<svg
   width="543.45844mm"
   height="399.22131mm"
   viewBox="0 0 543.45844 399.22131"
   version="1.1"
   id="svg10408"
   xml:space="preserve"
   sodipodi:docname="discord.svg"
   inkscape:version="1.2.2 (b0a8486541, 2022-12-01)"
   xmlns:inkscape="http://www.inkscape.org/namespaces/inkscape"
   xmlns:sodipodi="http://sodipodi.sourceforge.net/DTD/sodipodi-0.dtd"
   xmlns="http://www.w3.org/2000/svg"
   xmlns:svg="http://www.w3.org/2000/svg"><sodipodi:namedview
     id="namedview10410"
     pagecolor="#ffffff"
     bordercolor="#000000"
     borderopacity="0.25"
     inkscape:showpageshadow="2"
     inkscape:pageopacity="0.0"
     inkscape:pagecheckerboard="true"
     inkscape:deskcolor="#d1d1d1"
     inkscape:document-units="mm"
     showgrid="false"
     inkscape:zoom="0.457453"
     inkscape:cx="1177.1701"
     inkscape:cy="590.22457"
     inkscape:window-width="2515"
     inkscape:window-height="1408"
     inkscape:window-x="45"
     inkscape:window-y="0"
     inkscape:window-maximized="1"
     inkscape:current-layer="layer1" /><defs
     id="defs10405" /><g
     inkscape:label="Layer 1"
     inkscape:groupmode="layer"
     id="layer1"
     transform="translate(163.27728,72.070478)"><path
       id="path13082"
       style="fill:#ff004c;fill-opacity:1;stroke-width:0.264583"
       d="m 40.767578,-74.285156 c -36.2798017,3.547296 -71.782965,14.818812 -103.448355,32.878295 -9.195735,5.245439 -18.103157,11.024852 -26.513276,17.460049 -3.697776,3.233756 -5.776951,7.787104 -8.243854,11.93403 -13.733263,24.346538 -24.439673,50.300682 -33.413603,76.745067 -15.50909,45.970955 -25.31342,93.748505 -30.81774,141.917885 -1.56776,13.89867 -2.82191,27.8386 -3.62177,41.80491 -0.0346,1.02765 -0.0356,2.05593 -0.0488,3.08398 15.8594,18.49672 34.88445,34.29971 56.11494,46.26802 27.091844,15.4514 57.305277,25.09681 88.135696,29.45152 7.874002,1.13569 15.8227086,1.8624 23.7825634,1.85859 2.1285831,-0.26394 3.3725234,-2.2181 4.5058594,-3.81641 10.9524742,-14.6862 21.9049482,-29.37239 32.8574222,-44.05859 14.471096,2.24415 29.011291,4.25608 43.649469,4.91358 21.86028,1.2714 43.82326,0.84768 65.61968,-1.25433 9.1887,-0.93068 18.33824,-2.21952 27.45155,-3.71003 0.89877,0.79487 1.32362,1.9781 2.16206,2.83353 11.22195,14.94242 22.43925,29.88836 33.66412,44.82858 24.84508,-0.29793 49.47795,-5.2076 73.00639,-13.02372 29.67166,-10.01139 57.55833,-25.85254 80.4311,-47.34437 5.42964,-5.08521 10.62293,-10.44482 15.31837,-16.21785 1.44625,-2.4654 0.72754,-5.40184 0.61589,-8.08412 -3.80225,-55.06596 -12.79199,-109.91267 -28.86179,-162.772309 -9.32761,-30.437589 -20.87705,-60.283475 -35.9548,-88.3567389 -2.75851,-5.0387001 -5.56458,-10.0763751 -8.88336,-14.7716911 -3.11507,-3.807574 -7.55059,-6.121865 -11.49994,-8.926869 -24.65911,-16.444567 -51.76173,-29.459486 -80.44541,-37.110649 -12.89703,-3.363784 -26.11466,-5.639961 -39.44716,-6.18075 -0.70534,-0.13278 -1.79631,-0.01253 -1.90234,0.908203 -6.3838,13.077856 -12.83108,26.12464 -19.25391,39.183594 -31.20735,-3.477748 -62.808077,-3.508678 -94.013669,0.0059 -6.865926,-13.490214 -13.731532,-26.98059 -20.597657,-40.470703 -0.115885,0.0078 -0.23177,0.01563 -0.347656,0.02344 z M 187.6543,-55.642578 c 25.96485,3.313216 51.07224,12.316328 74.2151,24.463016 11.15308,5.895334 21.99637,12.382804 32.14425,19.871609 2.4471,2.1705215 3.63629,5.3089669 5.33366,8.0276918 12.34376,21.9888612 22.10035,45.3510872 30.41254,69.1126402 14.20095,40.879751 23.64344,83.304981 29.47429,126.136901 2.33708,17.34632 4.08228,34.78317 5.2893,52.25924 0.13547,0.64168 0.0185,1.33119 -0.55849,1.71809 -4.10125,4.28258 -8.2737,8.5061 -12.70052,12.45785 -11.18149,10.09841 -23.52533,18.86845 -36.82708,25.97286 -25.24018,13.69915 -53.15751,22.21124 -81.59732,25.75634 -3.91565,0.48489 -7.8458,0.93532 -11.79511,0.98939 -0.79827,-0.92962 -1.4126,-1.99353 -2.21012,-2.94349 -7.75925,-10.29472 -15.47242,-20.62415 -23.13363,-30.99206 17.41934,-4.27334 34.55561,-9.83127 50.93234,-17.17779 22.0534,-9.70813 42.97909,-22.0499 61.89969,-36.99018 -2.90448,-4.92526 -6.63874,-9.28043 -10.27929,-13.66601 -19.36354,14.49852 -40.2219,27.20187 -62.55664,36.51562 -28.07539,11.81742 -58.041,18.82805 -88.27295,21.76917 -5.92473,0.57052 -11.91706,1.08159 -17.81982,1.34366 -23.48462,0.88086 -47.075355,0.57156 -70.365528,-2.55539 -23.009147,-3.00893 -45.833866,-8.24624 -67.5869765,-16.40998 -15.4509065,-5.77598 -30.2879905,-12.90027 -44.4319805,-21.40168 -9.119257,-5.41551 -17.941468,-11.33793 -26.428999,-17.69109 -1.82574,-0.99097 -4.288829,-0.01 -5.128878,1.83937 -2.597549,3.4059 -5.176458,6.82445 -7.757841,10.24266 26.899871,20.51983 57.056222,36.92872 89.2814097,47.36402 7.9578846,2.58332 16.0174953,4.84812 24.1443713,6.8352 -8.551889,11.51976 -17.0685918,23.06737 -25.7773436,34.46875 -20.3007504,-1.81698 -40.4961444,-5.74729 -59.7790804,-12.51208 -15.169345,-5.33212 -29.831343,-12.21867 -43.511934,-20.71253 -11.31893,-7.0538 -21.93116,-15.27743 -31.47786,-24.62476 -2.87937,-2.77199 -5.66778,-5.63699 -8.40495,-8.54907 0.0187,-3.57405 0.48015,-7.16172 0.7016,-10.75687 4.01089,-49.97909 12.60121,-99.68404 27.21875,-147.700345 8.2898,-27.133126 18.3978,-53.755286 31.291262,-79.0459915 3.18919,-6.1690403 6.396821,-12.3662522 10.364821,-18.0774985 2.186513,-2.443478 5.117928,-4.025015 7.779639,-5.879795 5.421021,-3.66638 10.966278,-7.148178 16.669867,-10.358901 22.785942,-12.889849 47.6985924,-22.161964 73.386814,-27.128089 3.787995,-0.722792 7.579465,-1.363357 11.384118,-1.876728 4.112412,8.175477 8.400491,16.264245 12.355469,24.517578 -9.547181,1.574276 -18.989984,3.755632 -28.315441,6.328264 -20.8500702,5.765525 -41.012326,13.780735 -60.577274,22.970946 -9.951074,4.6613605 -19.760895,9.6103324 -29.540879,14.620712 2.519118,5.188969 5.027534,10.394873 8.03125,15.328125 C -52.023819,20.721158 -37.085887,13.425483 -21.835315,6.7672211 -6.3310404,0.09691883 9.6274095,-5.5684607 26.016889,-9.5694679 57.617961,-17.43932 90.330495,-19.973068 122.8481,-18.864356 c 30.14597,1.081888 60.25539,5.796698 88.94798,15.2665595 16.73663,5.4589103 32.91119,12.4813794 48.71562,20.1856025 7.80278,3.766353 15.54935,7.647567 23.32814,11.462975 3.10288,-4.813534 5.44675,-10.057851 7.73243,-15.292969 -22.88502,-11.6916455 -45.98688,-23.215861 -70.375,-31.46875 -15.473,-5.318033 -31.33847,-9.503871 -47.44141,-12.404296 4.02511,-8.252654 8.05868,-16.501172 12.09961,-24.746094 0.59961,0.07292 1.19922,0.145833 1.79883,0.21875 z m -2.56446,150.683594 c -13.10388,0.383862 -25.77915,6.721284 -34.30464,16.619874 -10.84922,12.18805 -15.96462,29.00534 -14.6093,45.18814 1.13759,14.37432 7.34193,28.48672 17.89051,38.43027 8.82778,8.28733 20.78863,13.38726 32.96326,13.24049 12.50923,-0.0624 24.82305,-5.4375 33.55627,-14.35963 10.46896,-10.46777 16.36888,-25.09462 16.92968,-39.81836 0.62916,-15.06187 -4.24506,-30.45024 -14.10028,-41.94675 -7.20853,-8.46137 -17.23239,-14.635902 -28.22347,-16.613631 -3.3263,-0.632425 -6.72007,-0.838225 -10.10203,-0.740403 z m -157.164059,0.03711 c -13.156386,0.511159 -25.7739494,7.082285 -34.2361542,17.085315 -10.2484838,11.79086 -15.2129628,27.7734 -14.2349048,43.29743 0.844016,14.71573 6.967366,29.27189 17.6497735,39.54714 9.6939772,9.32705 23.4054555,14.53631 36.8676675,13.34396 11.463397,-0.91296 22.434293,-6.29286 30.37168,-14.58397 10.056573,-10.27812 15.744309,-24.44097 16.47448,-38.7308 0.80463,-14.58496 -3.577132,-29.53984 -12.749964,-40.98447 C 61.126721,105.31564 51.406542,98.547882 40.417684,96.155414 36.323215,95.249089 32.113397,94.933717 27.925781,95.078125 Z M 186.99805,112.35156 c 7.61333,0.0854 15.14974,3.40838 20.69166,8.6537 4.89791,4.64149 8.37334,10.75273 10.41967,17.0963 2.38399,7.49016 2.68883,15.4886 1.08952,23.15317 -1.79189,8.59477 -6.24183,16.72839 -12.93132,22.47769 -4.21513,3.60744 -9.47853,6.25771 -15.04319,7.06858 -6.80246,1.07184 -13.95114,-0.3964 -19.78315,-4.05876 -3.08603,-1.89051 -6.02786,-4.4652 -8.4128,-7.32409 -4.09426,-4.84953 -6.87621,-10.71613 -8.37457,-16.80857 -0.91287,-3.70198 -1.33469,-7.41662 -1.31403,-11.28341 0.0654,-5.88591 1.20591,-11.66459 3.49763,-17.09213 2.25145,-5.31745 5.58426,-10.121 9.92594,-13.9845 4.9875,-4.44604 11.21316,-7.31964 17.91453,-7.81878 0.77094,-0.0587 1.52056,-0.082 2.32011,-0.0792 z m -156.578128,0.0137 c 7.183427,0.055 14.358297,3.07956 19.717262,7.81624 3.301368,2.86751 5.831171,6.3598 7.958519,10.14665 4.463212,8.13942 6.301018,17.66813 5.13693,26.89969 -1.317611,10.90621 -6.78371,21.82386 -15.927372,28.32871 -4.702317,3.36907 -10.419515,5.33231 -16.134289,5.57337 -7.527892,0.39256 -15.020072,-2.61262 -20.681577,-7.54599 -8.2771564,-7.12557 -12.9695105,-17.84443 -13.6928453,-28.64465 -0.4090356,-5.73386 0.2801176,-11.66294 2.0792878,-17.13918 2.3685581,-7.35545 6.8650579,-14.27598 12.9835375,-19.05984 4.190414,-3.24533 9.459547,-5.52188 14.774683,-6.14764 1.19755,-0.1637 2.535211,-0.19543 3.785864,-0.22736 z" /></g></svg>
