<?xml version="1.0" encoding="UTF-8" standalone="no"?>
<!-- Uploaded to: SVG Repo, www.svgrepo.com, Generator: SVG Repo Mixer Tools -->

<svg
   fill="#000000"
   height="800px"
   width="800px"
   version="1.1"
   id="Layer_1"
   viewBox="0 0 455 455"
   xml:space="preserve"
   sodipodi:docname="spotify.svg"
   inkscape:version="1.2.2 (b0a8486541, 2022-12-01)"
   xmlns:inkscape="http://www.inkscape.org/namespaces/inkscape"
   xmlns:sodipodi="http://sodipodi.sourceforge.net/DTD/sodipodi-0.dtd"
   xmlns="http://www.w3.org/2000/svg"
   xmlns:svg="http://www.w3.org/2000/svg"><defs
   id="defs28024" /><sodipodi:namedview
   id="namedview28022"
   pagecolor="#ffffff"
   bordercolor="#000000"
   borderopacity="0.25"
   inkscape:showpageshadow="2"
   inkscape:pageopacity="0.0"
   inkscape:pagecheckerboard="true"
   inkscape:deskcolor="#d1d1d1"
   showgrid="false"
   inkscape:zoom="1.28375"
   inkscape:cx="364.94645"
   inkscape:cy="399.61052"
   inkscape:window-width="2515"
   inkscape:window-height="1408"
   inkscape:window-x="45"
   inkscape:window-y="0"
   inkscape:window-maximized="1"
   inkscape:current-layer="Layer_1" />

<path
   style="fill:#ffffff;stroke-width:0.64101"
   d="M 216.93766,454.28588 C 117.67393,450.39292 31.105537,379.38318 7.0311059,282.10515 2.2318713,262.71278 0.6733982,249.32416 0.6733982,227.48681 c 0,-17.462 0.457156,-23.50064 2.8751485,-37.97829 C 19.374179,94.752862 95.020654,19.201455 189.73758,3.5534608 204.29111,1.1490987 211.47517,0.57868474 227.3032,0.57073162 243.00779,0.5625156 251.43167,1.2204959 265.15911,3.5261836 358.88126,19.267922 432.99828,91.959668 450.7689,185.56668 c 2.77805,14.63346 3.56809,23.91528 3.56809,41.92013 0,19.01562 -0.83262,28.00251 -4.121,44.48013 -13.82494,69.27481 -59.93673,129.00196 -123.30979,159.71927 -34.68776,16.81338 -70.39543,24.15167 -109.96854,22.59967 z M 322.45839,333.8076 c 1.50704,-0.88319 3.58146,-2.84659 4.60984,-4.36314 1.74417,-2.57215 1.86977,-3.16896 1.86977,-8.88512 0,-5.56373 -0.15673,-6.3645 -1.70277,-8.69979 -2.6008,-3.92855 -11.85068,-9.52423 -29.01733,-17.55389 -49.89643,-23.33897 -114.10869,-28.84373 -181.76054,-15.58188 -19.031654,3.73079 -21.604272,4.86631 -24.640076,10.8759 -1.260758,2.49577 -1.596423,4.11721 -1.583113,7.64734 0.02391,6.35595 2.434548,10.59614 7.501082,13.19428 4.114787,2.11008 7.098727,2.10903 16.482097,-0.006 10.07608,-2.27094 25.09877,-4.78343 36.56361,-6.11512 58.1259,-6.7516 109.66784,2.3857 152.48023,27.03155 2.77381,1.5968 6.08581,3.293 7.36002,3.76934 3.26762,1.22153 8.5025,0.64057 11.83718,-1.31368 z m 25.04629,-59.85765 c 3.48073,-1.5397 7.18128,-5.28958 8.84786,-8.96582 0.99576,-2.19652 1.32989,-4.22837 1.32496,-8.05724 -0.0118,-9.14861 -2.92558,-13.41636 -13.29403,-19.47119 -55.40162,-32.35271 -131.75814,-46.43397 -202.96604,-37.4299 -16.32093,2.06373 -45.170279,8.57315 -50.880145,11.48032 -6.430962,3.27431 -9.750959,9.02555 -9.802178,16.98035 -0.02637,4.09433 0.259963,5.50555 1.724281,8.4985 3.040348,6.21426 9.026354,10.02189 15.755476,10.02189 1.633255,0 8.133966,-1.31624 14.446036,-2.92499 23.66379,-6.03115 45.33733,-8.66635 71.31667,-8.67105 25.50355,-0.004 44.55192,2.00463 68.16019,7.18967 26.88836,5.90543 49.21897,14.29393 73.48751,27.60562 4.51403,2.47601 9.12203,4.73524 10.24003,5.0205 2.86735,0.73161 8.4947,0.11438 11.63938,-1.27666 z m 29.84057,-70.39236 c 4.66657,-2.23851 7.98708,-5.48417 10.08506,-9.85775 2.35045,-4.89989 2.94458,-9.25724 1.9843,-14.55284 -1.49008,-8.21734 -4.89537,-12.44179 -14.39648,-17.85968 -35.68422,-20.34849 -83.57208,-34.19898 -137.2804,-39.70529 -52.23293,-5.35505 -108.8368,-1.63705 -150.699157,9.89862 -9.066375,2.49835 -12.239051,4.06261 -15.80667,7.79335 -6.181639,6.46427 -7.790583,16.55213 -4.053927,25.41752 1.539305,3.65205 6.889342,8.99535 10.608794,10.59541 5.994929,2.57895 9.794685,2.43823 22.35054,-0.8278 21.66203,-5.63472 40.94864,-8.52208 66.7912,-9.99916 66.77552,-3.81666 139.70478,9.94138 183.85893,34.68482 10.49432,5.88089 11.79372,6.31448 18.15068,6.0567 3.96208,-0.16067 6.24611,-0.60728 8.40713,-1.6439 z"
   id="path29232" /></svg>
