<?xml version="1.0" encoding="UTF-8" standalone="no"?>
<svg
   class="external-icon"
   viewBox="0 0 28.57 28.57"
   focusable="false"
   style="display:block"
   version="1.1"
   id="svg26755"
   sodipodi:docname="yt.svg"
   inkscape:version="1.2.2 (b0a8486541, 2022-12-01)"
   width="28.57"
   height="28.57"
   xmlns:inkscape="http://www.inkscape.org/namespaces/inkscape"
   xmlns:sodipodi="http://sodipodi.sourceforge.net/DTD/sodipodi-0.dtd"
   xmlns="http://www.w3.org/2000/svg"
   xmlns:svg="http://www.w3.org/2000/svg">
  <defs
     id="defs26759">
    <inkscape:path-effect
       effect="powerclip"
       id="path-effect27261"
       is_visible="true"
       lpeversion="1"
       inverse="true"
       flatten="false"
       hide_clip="false"
       message="Use fill-rule evenodd on &lt;b&gt;fill and stroke&lt;/b&gt; dialog if no flatten result after convert clip to paths." />
    <clipPath
       clipPathUnits="userSpaceOnUse"
       id="clipPath27257">
      <path
         d="m 11.4253,14.2854 7.4224,-4.285 -7.4224,-4.28507 z"
         fill="#ffffff"
         id="path27259"
         style="display:none" />
      <path
         id="lpe_path-effect27261"
         class="powerclip"
         d="M -5,-5 H 33.5701 V 25 H -5 Z m 16.4253,19.2854 7.4224,-4.285 -7.4224,-4.28507 z" />
    </clipPath>
  </defs>
  <sodipodi:namedview
     id="namedview26757"
     pagecolor="#ffffff"
     bordercolor="#000000"
     borderopacity="0.25"
     inkscape:showpageshadow="2"
     inkscape:pageopacity="0.0"
     inkscape:pagecheckerboard="true"
     inkscape:deskcolor="#d1d1d1"
     showgrid="false"
     inkscape:zoom="17.819982"
     inkscape:cx="0.02805839"
     inkscape:cy="18.630771"
     inkscape:window-width="2515"
     inkscape:window-height="1408"
     inkscape:window-x="45"
     inkscape:window-y="0"
     inkscape:window-maximized="1"
     inkscape:current-layer="svg26755" />
  <svg
     viewBox="0 0 28.57 20"
     preserveAspectRatio="xMidYMid"
     version="1.1"
     id="svg26753"
     width="100%"
     height="100%">
    <g
       id="g26751">
      <path
         d="M 27.9727,3.12324 C 27.6435,1.89323 26.6768,0.926623 25.4468,0.597366 23.2197,2.24288e-7 14.285,0 14.285,0 14.285,0 5.35042,2.24288e-7 3.12323,0.597366 1.89323,0.926623 0.926623,1.89323 0.597366,3.12324 2.24288e-7,5.35042 0,10 0,10 c 0,0 2.24288e-7,4.6496 0.597366,6.8768 0.329257,1.23 1.295864,2.1966 2.525864,2.5258 C 5.35042,20 14.285,20 14.285,20 c 0,0 8.9347,0 11.1618,-0.5974 1.23,-0.3292 2.1967,-1.2958 2.5259,-2.5258 C 28.5701,14.6496 28.5701,10 28.5701,10 c 0,0 -0.0024,-4.64958 -0.5974,-6.87676 z"
         fill="#FF0000"
         id="path26747"
         style="fill:#ffffff"
         clip-path="url(#clipPath27257)"
         inkscape:path-effect="#path-effect27261"
         inkscape:original-d="M 27.9727,3.12324 C 27.6435,1.89323 26.6768,0.926623 25.4468,0.597366 23.2197,2.24288e-7 14.285,0 14.285,0 14.285,0 5.35042,2.24288e-7 3.12323,0.597366 1.89323,0.926623 0.926623,1.89323 0.597366,3.12324 2.24288e-7,5.35042 0,10 0,10 c 0,0 2.24288e-7,4.6496 0.597366,6.8768 0.329257,1.23 1.295864,2.1966 2.525864,2.5258 C 5.35042,20 14.285,20 14.285,20 c 0,0 8.9347,0 11.1618,-0.5974 1.23,-0.3292 2.1967,-1.2958 2.5259,-2.5258 C 28.5701,14.6496 28.5701,10 28.5701,10 c 0,0 -0.0024,-4.64958 -0.5974,-6.87676 z" />
    </g>
  </svg>
</svg>
