<?xml version="1.0" encoding="UTF-8" standalone="no"?>
<!-- Generator: Adobe Illustrator 23.0.1, SVG Export Plug-In . SVG Version: 6.00 Build 0)  -->

<svg
   version="1.1"
   id="Layer_1"
   x="0px"
   y="0px"
   viewBox="0 0 176 176"
   enable-background="new 0 0 176 176"
   xml:space="preserve"
   sodipodi:docname="ytmusic.svg"
   inkscape:version="1.2.2 (b0a8486541, 2022-12-01)"
   xmlns:inkscape="http://www.inkscape.org/namespaces/inkscape"
   xmlns:sodipodi="http://sodipodi.sourceforge.net/DTD/sodipodi-0.dtd"
   xmlns="http://www.w3.org/2000/svg"
   xmlns:svg="http://www.w3.org/2000/svg"
   xmlns:ns="&amp;ns_sfw;"><defs
   id="defs26162"><inkscape:path-effect
     effect="powerclip"
     id="path-effect34101"
     is_visible="true"
     lpeversion="1"
     inverse="true"
     flatten="false"
     hide_clip="false"
     message="Use fill-rule evenodd on &lt;b&gt;fill and stroke&lt;/b&gt; dialog if no flatten result after convert clip to paths." /><inkscape:path-effect
     effect="powerclip"
     id="path-effect33946"
     is_visible="true"
     lpeversion="1"
     inverse="true"
     flatten="false"
     hide_clip="false"
     message="Use fill-rule evenodd on &lt;b&gt;fill and stroke&lt;/b&gt; dialog if no flatten result after convert clip to paths." /><inkscape:path-effect
     effect="powerclip"
     id="path-effect26692"
     is_visible="true"
     lpeversion="1"
     inverse="true"
     flatten="false"
     hide_clip="false"
     message="Use fill-rule evenodd on &lt;b&gt;fill and stroke&lt;/b&gt; dialog if no flatten result after convert clip to paths." /><clipPath
     clipPathUnits="userSpaceOnUse"
     id="clipPath26688"><polygon
       id="polygon26690"
       fill="#FFFFFF"
       points="111,87 72,65 72,111 "
       style="display:none;fill:#000000"
       d="M 111,87 72,65 v 46 z" /></clipPath><clipPath
     clipPathUnits="userSpaceOnUse"
     id="clipPath26688-5"><polygon
       id="polygon26690-6"
       fill="#FFFFFF"
       points="72,65 72,111 111,87 "
       style="display:none;fill:#000000"
       d="m 72,65 v 46 l 39,-24 z" /><path
       id="lpe_path-effect26692-2"
       style="display:inline;fill:#000000"
       class="powerclip"
       d="M -5,-5 H 181 V 181 H -5 Z m 77,70 v 46 l 39,-24 z" /></clipPath><inkscape:path-effect
     effect="powerclip"
     id="path-effect26692-9"
     is_visible="true"
     lpeversion="1"
     inverse="true"
     flatten="false"
     hide_clip="false"
     message="Use fill-rule evenodd on &lt;b&gt;fill and stroke&lt;/b&gt; dialog if no flatten result after convert clip to paths." /><clipPath
     clipPathUnits="userSpaceOnUse"
     id="clipath_lpe_path-effect26692-9"><polygon
       id="polygon30669"
       fill="#FFFFFF"
       points="72,65 72,111 111,87 "
       style="display:none;fill:#000000"
       d="m 72,65 v 46 l 39,-24 z" /><path
       id="lpe_path-effect26692-9"
       style="display:inline;fill:#000000"
       class="powerclip"
       d="M -5,-5 H 181 V 181 H -5 Z m 77,70 v 46 l 39,-24 z" /></clipPath><clipPath
     clipPathUnits="userSpaceOnUse"
     id="clipPath30675"><path
       id="path30677"
       fill="#FFFFFF"
       d="m 88,46 c 23.1,0 42,18.8 42,42 0,23.2 -18.8,42 -42,42 C 64.8,130 46,111.2 46,88 46,64.8 64.9,46 88,46 m 0,-4 c -25.4,0 -46,20.6 -46,46 0,25.4 20.6,46 46,46 25.4,0 46,-20.6 46,-46 0,-25.4 -20.6,-46 -46,-46 z"
       style="display:block;fill:#000000" /></clipPath><clipPath
     clipPathUnits="userSpaceOnUse"
     id="clipPath33942"><path
       style="display:none;fill:#000000;fill-opacity:0.985262;stroke-width:0.171643"
       d="m 72.062317,88.077918 v -22.8174 l 0.728335,0.421143 c 0.400585,0.231628 8.979942,5.06891 19.065239,10.749516 10.085299,5.680606 18.434609,10.418743 18.554029,10.529193 0.16974,0.156996 -3.94031,2.760512 -18.834649,11.930837 -10.478473,6.451513 -19.155535,11.791693 -19.282361,11.867063 -0.19274,0.11455 -0.230593,-3.60852 -0.230593,-22.680352 z"
       id="path33944" /><path
       id="lpe_path-effect33946"
       style="display:inline;fill:#000000;fill-opacity:0.985262;stroke-width:0.171643"
       class="powerclip"
       d="m 41.12601,41.178297 h 93.76261 V 134.85194 H 41.12601 Z m 30.936307,46.899621 c 0,19.071832 0.03785,22.794902 0.230593,22.680352 0.126826,-0.0754 8.803888,-5.41555 19.282361,-11.867063 C 106.46961,89.720882 110.57966,87.117366 110.40992,86.96037 110.2905,86.84992 101.94119,82.111783 91.855891,76.431177 81.770594,70.750571 73.191237,65.913289 72.790652,65.681661 l -0.728335,-0.421143 z" /></clipPath><clipPath
     clipPathUnits="userSpaceOnUse"
     id="clipPath34097"><circle
       style="display:none;fill:#00ffff;fill-opacity:0.985262;stroke-width:0.935405"
       id="circle34099"
       cx="88.060608"
       cy="87.843048"
       r="45.826168"
       d="M 133.88678,87.843048 A 45.826168,45.826168 0 0 1 88.060608,133.66922 45.826168,45.826168 0 0 1 42.23444,87.843048 45.826168,45.826168 0 0 1 88.060608,42.01688 45.826168,45.826168 0 0 1 133.88678,87.843048 Z" /><path
       id="lpe_path-effect34101"
       style="fill:#00ffff;fill-opacity:0.985262;stroke-width:0.935405"
       class="powerclip"
       d="M -5,-5 H 181 V 181 H -5 Z M 133.88678,87.843048 A 45.826168,45.826168 0 0 0 88.060608,42.01688 45.826168,45.826168 0 0 0 42.23444,87.843048 45.826168,45.826168 0 0 0 88.060608,133.66922 45.826168,45.826168 0 0 0 133.88678,87.843048 Z" /></clipPath></defs><sodipodi:namedview
   id="namedview26160"
   pagecolor="#ffffff"
   bordercolor="#000000"
   borderopacity="0.25"
   inkscape:showpageshadow="2"
   inkscape:pageopacity="0.0"
   inkscape:pagecheckerboard="true"
   inkscape:deskcolor="#d1d1d1"
   showgrid="false"
   inkscape:zoom="5.8352273"
   inkscape:cx="80.288218"
   inkscape:cy="88.085686"
   inkscape:window-width="2515"
   inkscape:window-height="1408"
   inkscape:window-x="45"
   inkscape:window-y="0"
   inkscape:window-maximized="1"
   inkscape:current-layer="XMLID_167_" />
<metadata
   id="metadata26153">
	<ns:sfw>
		<ns:slices />
		<ns:sliceSourceBounds
   bottomLeftOrigin="true"
   height="176"
   width="176"
   x="8"
   y="-184" />
	</ns:sfw>
</metadata>
<g
   id="XMLID_167_"
   style="fill:#ffffff">
	<path
   id="XMLID_791_-1"
   fill="#FF0000"
   style="display:inline;fill:#ffffff"
   clip-path="url(#clipPath34097)"
   transform="translate(-0.06823957,0.08568647)"
   d="M 176,88 A 88,88 0 0 1 88,176 88,88 0 0 1 0,88 88,88 0 0 1 88,0 88,88 0 0 1 176,88 Z"
   sodipodi:type="arc"
   sodipodi:ry="88"
   sodipodi:rx="88"
   sodipodi:cy="88"
   sodipodi:cx="88"
   inkscape:path-effect="#path-effect26692-9;#path-effect34101" /><path
   id="XMLID_791_"
   fill="#FF0000"
   style="display:none;fill:#ffffff;fill-opacity:0.985262"
   clip-path="url(#clipPath30675)"
   d="M 176,88 A 88,88 0 0 1 88,176 88,88 0 0 1 0,88 88,88 0 0 1 88,0 88,88 0 0 1 176,88 Z"
   sodipodi:type="arc"
   sodipodi:ry="88"
   sodipodi:rx="88"
   sodipodi:cy="88"
   sodipodi:cx="88"
   inkscape:path-effect="#path-effect26692" />
	
	
<path
   style="display:inline;fill:#ffffff;fill-opacity:0.985262;stroke-width:0.171643"
   d="M 84.572541,129.79865 C 82.066896,129.50508 79.834339,129.1271 78.111117,128.70471 67.786193,126.17389 58.91393,119.91489 52.963236,110.96397 50.736281,107.61423 48.393966,102.3213 47.378516,98.344175 45.613021,91.429414 45.718643,83.46637 47.665745,76.689387 52.251811,60.727361 65.467064,49.124514 82.05149,46.49908 c 2.707827,-0.428668 9.196253,-0.427484 11.911786,0.0022 10.700044,1.692985 19.944004,6.99372 26.644524,15.278688 7.5463,9.330748 10.70444,21.446115 8.68323,33.310992 -0.68662,4.030614 -1.83599,7.51998 -3.76078,11.41735 -6.13429,12.42086 -17.56152,20.76751 -31.446511,22.96907 -1.634409,0.25915 -8.160107,0.47959 -9.511198,0.3213 z"
   id="path33865"
   clip-path="url(#clipPath33942)"
   inkscape:path-effect="#path-effect33946"
   inkscape:original-d="M 84.572541,129.79865 C 82.066896,129.50508 79.834339,129.1271 78.111117,128.70471 67.786193,126.17389 58.91393,119.91489 52.963236,110.96397 50.736281,107.61423 48.393966,102.3213 47.378516,98.344175 45.613021,91.429414 45.718643,83.46637 47.665745,76.689387 52.251811,60.727361 65.467064,49.124514 82.05149,46.49908 c 2.707827,-0.428668 9.196253,-0.427484 11.911786,0.0022 10.700044,1.692985 19.944004,6.99372 26.644524,15.278688 7.5463,9.330748 10.70444,21.446115 8.68323,33.310992 -0.68662,4.030614 -1.83599,7.51998 -3.76078,11.41735 -6.13429,12.42086 -17.56152,20.76751 -31.446511,22.96907 -1.634409,0.25915 -8.160107,0.47959 -9.511198,0.3213 z" /></g>
</svg>
